<svg width="745" height="625" viewBox="0 0 745 625" fill="none" xmlns="http://www.w3.org/2000/svg">
<path d="M514.87 113.185L476.283 93C467.768 101.547 442.37 118.641 408.891 118.641C375.413 118.641 358.348 104.093 354 96.8189L279 156.284L317.043 199.383L331.717 194.473C336.971 203.747 349.543 225.569 357.804 238.662C402.587 246.518 443.855 241.936 458.891 238.662L476.283 199.383L554 190.108L514.87 113.185Z" fill="#FFC700" fill-opacity="0.2"/>
<path d="M308 457.744L348.463 235L390.769 237.897C415.006 239.556 439.351 238.585 463.378 235C530.277 279.405 663.859 374.04 662.996 397.339C661.917 426.463 587 479 519.487 550.509C504.494 566.39 461.58 562.554 444.495 561.835C431.367 553.565 397.774 537.026 368.425 537.026C339.076 537.026 315.913 484.171 308 457.744Z" fill="#FB0ED5" fill-opacity="0.3"/>
<path d="M193.451 179.423C193.451 178.716 193.451 178.316 193.451 178.22C193.451 178.153 193.476 178.148 193.528 178.204C193.579 178.26 193.746 178.442 194.028 178.75C194.309 179.058 194.545 179.602 194.735 180.382C194.924 181.162 195.079 181.743 195.2 182.125C195.321 182.508 195.599 183.091 196.035 183.876C196.471 184.66 196.79 185.382 196.993 186.04C197.196 186.698 197.408 187.678 197.628 188.982C197.848 190.286 198.135 191.455 198.489 192.492C198.843 193.529 199.075 194.309 199.186 194.832C199.296 195.356 199.384 195.919 199.45 196.522C199.515 197.125 199.565 197.996 199.598 199.133C199.632 200.27 199.68 201.483 199.743 202.773C199.805 204.062 199.837 205.712 199.839 207.72C199.841 209.729 199.802 211.259 199.723 212.309C199.644 213.36 199.452 214.881 199.147 216.872C198.842 218.864 198.526 220.651 198.199 222.235C197.871 223.818 197.592 225.298 197.36 226.675C197.129 228.052 196.858 229.46 196.547 230.901C196.237 232.341 195.98 233.59 195.777 234.649C195.575 235.708 195.287 237.455 194.915 239.892C194.542 242.328 194.254 244.313 194.049 245.844C193.843 247.376 193.64 249.039 193.437 250.832C193.234 252.626 193.101 254.005 193.038 254.969C192.974 255.933 192.859 257.397 192.691 259.361C192.523 261.325 192.337 263.037 192.134 264.496C191.931 265.955 191.789 267.14 191.708 268.049C191.628 268.959 191.563 270.331 191.514 272.166C191.465 274.001 191.44 281.021 191.438 293.225C191.437 305.429 191.444 312.876 191.461 315.565C191.479 318.254 191.532 320.454 191.623 322.166C191.713 323.877 191.849 325.839 192.032 328.053C192.214 330.267 192.354 331.977 192.449 333.184C192.545 334.391 192.663 336.278 192.805 338.846C192.946 341.414 193.046 343.297 193.105 344.496C193.164 345.695 193.271 347.21 193.427 349.04C193.583 350.869 193.693 352.472 193.756 353.846C193.819 355.22 193.899 357.861 193.995 361.771C194.09 365.68 194.169 368.231 194.231 369.423C194.294 370.615 194.356 372.724 194.418 375.752C194.48 378.78 194.526 381.505 194.557 383.928C194.587 386.351 194.634 388.985 194.697 391.828C194.761 394.672 194.845 397.226 194.951 399.49C195.056 401.755 195.165 403.76 195.276 405.506C195.387 407.252 195.504 408.903 195.626 410.459C195.749 412.015 195.857 413.569 195.953 415.12C196.048 416.671 196.15 418.46 196.257 420.484C196.364 422.509 196.489 424.452 196.63 426.314C196.771 428.175 196.843 431.26 196.846 435.571C196.85 439.881 196.829 442.805 196.784 444.341C196.739 445.877 196.678 447.384 196.602 448.862C196.527 450.339 196.456 451.996 196.391 453.831C196.325 455.667 196.254 457.293 196.177 458.71C196.1 460.127 195.986 461.992 195.833 464.306C195.68 466.619 195.588 468.211 195.556 469.08C195.524 469.95 195.462 471.11 195.37 472.56C195.278 474.011 195.13 475.731 194.926 477.722C194.723 479.712 194.582 481.162 194.504 482.072C194.425 482.982 194.255 484.606 193.993 486.945C193.731 489.283 193.468 491.651 193.206 494.046C192.943 496.442 192.779 498.038 192.713 498.836C192.647 499.633 192.544 500.6 192.405 501.735C192.265 502.87 192.142 503.774 192.036 504.445C191.929 505.117 191.728 506.101 191.432 507.399C190.981 509.379 190.431 510.996 189.78 512.249" stroke="black" stroke-width="2" stroke-linecap="round" stroke-linejoin="round"/>
<path d="M99.0495 294.589C99.4167 295.904 99.2753 297.959 98.6253 300.753C98.2099 302.538 97.7321 304.15 97.192 305.587C96.6518 307.024 96.1173 308.342 95.5881 309.542C95.0591 310.742 94.5418 311.789 94.0362 312.684C93.5309 313.578 93.1159 314.271 92.7917 314.762C92.4674 315.253 92.0289 315.851 91.4764 316.556C90.9238 317.261 90.2128 318.201 89.3437 319.376C88.4744 320.551 87.7324 321.478 87.1173 322.156C86.5024 322.834 85.9439 323.422 85.4415 323.918C84.9394 324.414 84.115 325.402 82.9679 326.882C81.8209 328.361 80.6774 329.685 79.5377 330.853C78.3981 332.02 77.4505 333.022 76.695 333.858C75.9396 334.693 74.8419 335.815 73.4015 337.223C71.9613 338.631 70.6964 339.942 69.6067 341.156C68.517 342.37 67.6243 343.419 66.9285 344.303C66.2329 345.187 65.6755 345.948 65.2567 346.586C64.8376 347.224 64.3064 348.19 63.6629 349.483C63.0194 350.776 62.4244 351.922 61.8777 352.92C61.3311 353.918 60.8097 355.029 60.3138 356.253C59.8178 357.476 59.461 358.482 59.243 359.27C59.0253 360.058 58.7793 360.839 58.5058 361.612C58.2321 362.386 57.8668 363.551 57.4103 365.109C56.9537 366.667 56.5156 368.173 56.0957 369.627C55.6758 371.082 55.1303 372.679 54.4592 374.421C53.7879 376.162 53.232 377.823 52.7913 379.403C52.3503 380.984 51.9315 382.401 51.5346 383.654C51.1375 384.908 50.798 386.067 50.5163 387.133C50.2345 388.198 49.914 389.572 49.5546 391.253C49.195 392.935 48.9141 394.252 48.7119 395.205C48.5096 396.157 48.1831 397.194 47.7329 398.316C47.2826 399.438 46.8017 400.5 46.2903 401.504C45.7789 402.508 45.1082 403.627 44.2779 404.861C43.4477 406.095 42.5985 407.367 41.7301 408.676C40.8616 409.986 40.201 410.916 39.7481 411.466C39.2952 412.016 38.7916 412.523 38.2368 412.988C37.682 413.453 37.0293 414.071 36.2791 414.842C35.5291 415.614 34.7432 416.211 33.9219 416.636C33.1005 417.061 32.3919 417.482 31.7963 417.9C31.2009 418.319 30.4732 418.904 29.6139 419.658C28.7543 420.412 27.8421 421.093 26.8767 421.703C25.9113 422.312 25.1361 422.849 24.5514 423.313C23.9666 423.777 23.2192 424.424 22.3093 425.254C21.3994 426.083 20.4961 426.856 19.5992 427.573C18.7021 428.289 17.9714 429.009 17.4066 429.73C16.8418 430.452 16.3215 431.25 15.8454 432.125C15.3693 433 14.9809 433.882 14.6803 434.77C14.3794 435.658 14.1641 436.408 14.0341 437.02C13.8452 437.909 13.7493 439.364 13.7461 441.384" stroke="black" stroke-width="2" stroke-linecap="round" stroke-linejoin="round"/>
<path d="M194.81 511.185C193.352 511.118 192.105 511.155 191.069 511.295C190.367 511.39 189.637 511.464 188.879 511.516C188.12 511.569 187.139 511.661 185.936 511.793C184.733 511.924 183.39 512.023 181.907 512.088C180.425 512.154 178.937 512.197 177.444 512.218C175.951 512.238 173.371 512.249 169.703 512.249C166.036 512.249 163.208 512.191 161.222 512.075C159.235 511.96 157.721 511.886 156.68 511.854C155.639 511.822 154.527 511.758 153.346 511.661C152.165 511.564 150.712 511.401 148.987 511.17C147.262 510.94 145.573 510.741 143.919 510.574C142.266 510.408 140.905 510.258 139.839 510.125C138.772 509.992 137.334 509.754 135.523 509.411C133.712 509.068 132.055 508.724 130.552 508.38C129.049 508.035 127.914 507.763 127.149 507.565C126.383 507.367 125.31 507.071 123.93 506.677C122.55 506.284 121.364 505.94 120.372 505.644C119.379 505.349 117.771 504.846 115.55 504.136C113.328 503.425 111.369 502.778 109.672 502.193C107.975 501.608 106.64 501.195 105.668 500.953C104.696 500.711 103.708 500.426 102.704 500.098C101.7 499.77 100.755 499.426 99.8703 499.065C98.9855 498.705 97.5643 498.161 95.6064 497.433C93.6485 496.706 92.4321 496.242 91.9567 496.044C91.4816 495.846 90.6617 495.564 89.4973 495.198C88.3332 494.832 87.2824 494.468 86.3453 494.104C85.4083 493.74 83.8801 493.072 81.7609 492.098C79.6417 491.124 77.9429 490.324 76.6643 489.696C75.3857 489.068 74.2747 488.555 73.3316 488.156C72.3885 487.757 71.5249 487.361 70.7411 486.966C69.957 486.572 68.9114 485.995 67.6037 485.235C66.2963 484.476 64.8823 483.699 63.3619 482.905C61.8414 482.11 60.6682 481.515 59.842 481.118C59.016 480.721 58.1793 480.339 57.3315 479.974C56.4836 479.608 55.1084 478.913 53.2053 477.887C51.3023 476.862 49.6892 476.003 48.366 475.309C47.043 474.614 45.6425 473.796 44.165 472.854C42.6872 471.912 41.5235 471.176 40.6737 470.647C39.8238 470.117 38.9548 469.522 38.0667 468.859C37.1785 468.196 36.3803 467.551 35.6715 466.924C34.9629 466.296 33.99 465.511 32.7531 464.568C31.516 463.626 30.4744 462.816 29.6284 462.138C28.7822 461.46 27.8431 460.675 26.811 459.784C25.7789 458.893 24.765 458.076 23.7694 457.332C22.7738 456.589 21.9994 455.975 21.4463 455.49C20.8932 455.004 20.4263 454.537 20.046 454.088C19.6657 453.639 19.1975 453.174 18.6419 452.692C18.0863 452.211 17.5783 451.632 17.1178 450.957C16.6572 450.282 16.1548 449.659 15.6107 449.09C15.0664 448.52 14.7 448.046 14.5119 447.666C14.2129 447.064 13.9579 446.657 13.7461 446.445" stroke="black" stroke-width="2" stroke-linecap="round" stroke-linejoin="round"/>
<path d="M53.9827 481.878C53.6698 482.159 53.1495 482.992 52.4222 484.376C51.985 485.208 51.5794 485.994 51.2051 486.734C50.8308 487.474 50.5035 488.135 50.2234 488.717C49.9433 489.299 49.7055 489.8 49.5103 490.219C49.315 490.638 49.114 491.047 48.9074 491.447C48.7009 491.846 48.3678 492.407 47.9081 493.128C47.4484 493.85 47.0665 494.453 46.7625 494.936C46.4585 495.42 46.1773 495.906 45.9194 496.394C45.6615 496.883 45.4535 497.304 45.295 497.658C45.1365 498.012 44.8948 498.482 44.5703 499.069C44.2456 499.655 43.7999 500.485 43.233 501.559C42.6662 502.633 42.2179 503.496 41.8884 504.147C41.559 504.799 41.2482 505.393 40.9559 505.93C40.6635 506.467 40.3314 507.11 39.9595 507.859C39.5878 508.608 39.2922 509.201 39.0729 509.639C38.8536 510.076 38.6013 510.62 38.3161 511.271C38.0308 511.922 37.6248 512.735 37.0982 513.71C36.5717 514.685 36.0827 515.552 35.6314 516.31C35.1799 517.069 34.7797 517.761 34.4304 518.386C34.0813 519.012 33.5379 519.98 32.8003 521.291C32.0625 522.602 31.5353 523.514 31.2187 524.026C30.902 524.538 30.5333 525.072 30.1122 525.626C29.6913 526.18 29.2985 526.718 28.9336 527.24C28.569 527.763 28.1337 528.404 27.6278 529.165C27.122 529.925 26.7391 530.525 26.479 530.963C26.219 531.402 25.9559 531.826 25.6896 532.235C25.4236 532.643 25.0909 533.121 24.6918 533.667C24.2927 534.213 23.8399 534.889 23.3331 535.697C22.8264 536.504 22.3728 537.239 21.9719 537.9C21.5713 538.561 21.0717 539.392 20.4736 540.394C19.8755 541.396 19.4197 542.18 19.1062 542.746C18.7927 543.312 18.4356 543.903 18.035 544.52C17.6343 545.137 17.2695 545.693 16.9405 546.189C16.6117 546.685 16.318 547.141 16.0595 547.557C15.8012 547.973 15.4163 548.52 14.9053 549.198C14.3942 549.875 13.9091 550.522 13.4498 551.136C12.9908 551.751 12.6163 552.235 12.3263 552.589C12.0362 552.943 11.738 553.289 11.4314 553.627C11.1248 553.965 10.8184 554.347 10.5123 554.772C10.2063 555.198 9.96932 555.551 9.80179 555.832C9.63404 556.112 9.45551 556.44 9.26576 556.815C9.07623 557.189 8.89317 557.519 8.7168 557.806" stroke="black" stroke-width="2" stroke-linecap="round" stroke-linejoin="round"/>
<path d="M84.1602 497.063C83.7633 497.272 83.3924 497.542 83.047 497.872C82.7016 498.202 82.2775 498.628 81.7745 499.149C81.2714 499.671 80.8573 500.092 80.5319 500.412C80.2067 500.732 79.7138 501.246 79.0533 501.956C78.393 502.665 77.7437 503.353 77.1057 504.02C76.4678 504.687 75.7858 505.362 75.06 506.044C74.3343 506.725 73.2737 507.673 71.8786 508.887C70.4833 510.101 69.4343 510.998 68.7315 511.579C68.0287 512.159 67.2521 512.811 66.4012 513.535C65.5505 514.258 64.8737 514.844 64.3707 515.293C63.868 515.742 63.3526 516.22 62.8245 516.728C62.2967 517.236 61.7755 517.76 61.261 518.3C60.7464 518.841 60.0671 519.565 59.2228 520.474C58.3786 521.383 57.6816 522.122 57.1316 522.693C56.5817 523.264 56.0122 523.872 55.4229 524.515C54.8337 525.158 54.3089 525.752 53.8482 526.296C53.3876 526.84 52.9649 527.363 52.5804 527.865C52.196 528.366 51.7463 528.964 51.2315 529.659C50.7168 530.353 50.1505 531.089 49.5327 531.867C48.9152 532.645 48.2931 533.45 47.6669 534.282C47.041 535.114 46.3983 535.947 45.7391 536.778C45.0799 537.61 44.3945 538.464 43.6829 539.341C42.9711 540.218 42.4143 540.943 42.0122 541.515C41.6104 542.087 41.2184 542.636 40.8367 543.162C40.4553 543.688 40.0637 544.265 39.6626 544.894C39.2611 545.523 38.8739 546.103 38.5004 546.633C38.1269 547.164 37.5394 547.966 36.7374 549.039C35.9355 550.111 35.2915 550.96 34.8055 551.585C34.3195 552.211 33.9411 552.7 33.6702 553.054C33.3993 553.407 33.1262 553.79 32.851 554.203C32.5756 554.616 32.1783 555.266 31.659 556.154C31.14 557.042 30.7244 557.823 30.4127 558.499C30.1011 559.175 29.8692 559.687 29.7177 560.035C29.5661 560.382 29.3571 560.794 29.0907 561.268C28.8241 561.742 28.6025 562.133 28.4257 562.441C28.249 562.748 28.035 563.167 27.7838 563.697C27.5325 564.228 27.2195 564.951 26.8447 565.867C26.4701 566.784 26.1758 567.482 25.9622 567.961C25.7487 568.44 25.5658 568.902 25.4138 569.347C25.2616 569.791 25.1096 570.398 24.9579 571.168C24.8061 571.937 24.7155 572.519 24.6861 572.912C24.6569 573.305 24.6009 573.783 24.5185 574.347C24.4358 574.912 24.3263 575.478 24.1896 576.045C24.0529 576.612 23.955 577.079 23.8962 577.445C23.8371 577.81 23.8071 578.2 23.8058 578.614C23.8045 579.027 23.8129 579.606 23.8309 580.348C23.8487 581.09 23.8764 581.592 23.9138 581.855C23.9511 582.117 23.9702 582.531 23.9715 583.095C23.9726 583.659 24.0183 584.07 24.1085 584.328C24.1986 584.585 24.2448 584.942 24.2469 585.398C24.2488 585.854 24.2136 586.226 24.1415 586.512C24.0355 586.933 23.9739 587.488 23.9565 588.176" stroke="black" stroke-width="2" stroke-linecap="round" stroke-linejoin="round"/>
<path d="M8.85319 557.541C7.51001 558.885 6.8125 561.572 6.8125 564.259C6.8125 566.946 7.18656 569.41 7.48967 570.02C7.79256 570.629 8.03659 571.149 8.22196 571.579C8.40711 572.01 8.61743 572.423 8.85291 572.819C9.08839 573.216 9.30792 573.706 9.51194 574.291C9.71597 574.875 9.87999 575.296 10.0043 575.552C10.1283 575.808 10.2638 576.048 10.4101 576.271C10.5566 576.495 10.7473 576.875 10.9826 577.412C11.2176 577.949 11.5311 578.603 11.9229 579.374C12.3146 580.146 12.6035 580.661 12.7894 580.921C12.9754 581.181 13.1642 581.514 13.3556 581.919C13.547 582.323 13.7174 582.632 13.8666 582.845C14.0158 583.057 14.1877 583.25 14.3822 583.423C14.5771 583.596 14.771 583.831 14.9644 584.129C15.1579 584.426 15.3278 584.652 15.4738 584.807C15.6199 584.963 15.8102 585.097 16.0448 585.211C16.2791 585.325 16.4973 585.503 16.6991 585.746C16.9011 585.988 17.1779 586.184 17.5296 586.333C17.8812 586.482 18.1553 586.643 18.3519 586.818C18.5483 586.992 18.7829 587.106 19.0557 587.16C19.3283 587.214 19.5682 587.297 19.7754 587.41C19.9826 587.523 20.1785 587.594 20.3637 587.625C20.5488 587.656 20.758 587.748 20.9912 587.901C21.2245 588.054 21.5013 588.142 21.8213 588.165C22.1415 588.188 22.3702 588.174 22.5079 588.124C22.6454 588.073 22.7785 587.986 22.9068 587.862C23.0926 587.682 23.3921 587.621 23.8056 587.68" stroke="black" stroke-width="1.8" stroke-linecap="round" stroke-linejoin="round"/>
<path d="M24.5944 588.181C24.5944 588.711 24.7006 589.402 24.9132 590.256C25.1255 591.109 25.2733 591.734 25.3563 592.13C25.4393 592.526 25.5467 593.107 25.6782 593.872C25.8096 594.637 25.9182 595.268 26.0035 595.764C26.0891 596.26 26.1367 596.908 26.1463 597.708C26.1563 598.508 26.1113 599.102 26.0118 599.488C25.9122 599.874 25.8212 600.194 25.7382 600.447C25.6555 600.7 25.5479 600.928 25.4152 601.131C25.2828 601.334 25.1253 601.523 24.9432 601.7C24.7609 601.876 24.5963 602.07 24.4493 602.282C24.3024 602.495 24.1414 602.677 23.9666 602.829C23.7917 602.981 23.5157 603.108 23.1388 603.209C22.7619 603.31 22.271 603.361 21.6666 603.362C21.0622 603.363 20.6273 603.325 20.3625 603.246C20.0977 603.168 19.7943 602.999 19.4521 602.739C19.1102 602.479 18.777 602.191 18.4526 601.872C18.1282 601.554 17.6921 601.015 17.1443 600.255C16.5964 599.495 16.1348 598.862 15.7593 598.357C15.384 597.853 14.9842 597.307 14.5597 596.721C14.1355 596.135 13.7714 595.624 13.4673 595.189C13.1634 594.753 12.8291 594.268 12.4649 593.733C12.1008 593.198 11.7551 592.631 11.4278 592.033C11.1008 591.435 10.8194 590.905 10.5836 590.444C10.3481 589.983 10.0967 589.519 9.82955 589.052C9.56235 588.584 9.20316 587.995 8.75152 587.283C8.29988 586.572 7.86029 585.923 7.43254 585.336C7.00478 584.748 6.62573 584.125 6.29492 583.465C5.96434 582.806 5.69502 582.258 5.48717 581.823C5.27932 581.387 5.10433 580.97 4.96269 580.571C4.82105 580.171 4.64182 579.775 4.42498 579.383C4.20814 578.991 4.04309 578.652 3.93007 578.365C3.81704 578.079 3.69975 577.73 3.57821 577.32C3.45691 576.91 3.2675 576.44 3.01047 575.908C2.75367 575.377 2.55859 574.946 2.42593 574.615C2.29304 574.284 2.1741 574.043 2.06888 573.892C1.96365 573.741 1.87048 573.463 1.78938 573.059C1.70804 572.655 1.61061 572.3 1.49688 571.995C1.38337 571.69 1.31031 571.387 1.27815 571.086C1.24575 570.785 1.22967 570.27 1.22967 569.541C1.22967 568.811 1.19491 568.236 1.12516 567.815C1.05564 567.394 1.01473 566.96 1.00243 566.514C0.990138 566.068 1.02443 565.678 1.1053 565.344C1.18616 565.011 1.30369 564.669 1.45739 564.32C1.61132 563.971 3.57821 561.111 3.57821 561.111C3.8343 560.75 7.76039 557.524 7.90582 557.493" stroke="black" stroke-width="2" stroke-linecap="round" stroke-linejoin="round"/>
<path d="M164.633 512.249C164.314 513.132 164.085 513.859 163.946 514.43C163.852 514.819 163.633 515.542 163.291 516.599C162.949 517.656 162.712 518.443 162.581 518.961C162.45 519.478 162.341 519.971 162.254 520.439C162.167 520.907 162.058 521.424 161.927 521.99C161.796 522.557 161.621 523.282 161.401 524.166C161.18 525.05 161.033 525.697 160.96 526.106C160.886 526.516 160.786 527.217 160.659 528.21C160.532 529.202 160.398 530.166 160.258 531.101C160.118 532.036 160.004 532.793 159.918 533.371C159.831 533.95 159.721 534.526 159.589 535.099C159.456 535.673 159.296 536.312 159.107 537.017C158.918 537.722 158.705 538.874 158.467 540.472C158.229 542.07 158.058 543.245 157.954 543.998C157.85 544.751 157.758 545.486 157.678 546.202C157.598 546.918 157.534 547.553 157.486 548.107C157.439 548.661 157.406 549.171 157.39 549.637C157.373 550.103 157.346 550.548 157.309 550.971C157.271 551.395 157.209 551.937 157.122 552.599C157.036 553.26 156.952 554.053 156.872 554.978C156.792 555.902 156.698 556.881 156.59 557.915C156.481 558.949 156.387 559.947 156.306 560.91C156.226 561.873 156.15 562.666 156.08 563.289C156.009 563.912 155.942 564.728 155.878 565.735C155.815 566.743 155.772 567.442 155.75 567.834C155.728 568.227 155.673 568.734 155.586 569.356C155.498 569.979 155.415 570.53 155.337 571.009C155.258 571.489 155.187 572.052 155.122 572.699C155.058 573.345 154.994 574.191 154.931 575.234C154.868 576.278 154.829 577.055 154.814 577.565C154.798 578.075 154.763 578.691 154.708 579.413C154.652 580.135 154.616 580.746 154.6 581.244C154.583 581.742 154.574 582.618 154.574 583.872C154.574 585.126 154.582 585.91 154.597 586.223C154.612 586.537 154.679 587.204 154.797 588.225C154.915 589.245 154.982 590.037 154.998 590.599C155.015 591.161 155.05 591.684 155.106 592.168C155.161 592.651 155.2 593.065 155.223 593.41C155.246 593.756 155.308 594.29 155.412 595.013C155.515 595.736 155.604 596.301 155.681 596.707C155.757 597.114 155.848 597.511 155.951 597.9C156.055 598.288 156.162 598.615 156.271 598.881C156.381 599.147 156.487 599.483 156.59 599.891C156.693 600.298 156.803 600.656 156.923 600.965C157.042 601.273 157.159 601.667 157.276 602.148C157.392 602.629 157.494 602.982 157.58 603.206C157.667 603.43 157.794 603.675 157.961 603.94C158.127 604.206 158.258 604.425 158.352 604.6C158.446 604.774 158.6 604.969 158.813 605.185C159.026 605.401 159.328 605.724 159.721 606.155C160.113 606.586 160.424 606.982 160.655 607.342C160.885 607.701 161.11 607.977 161.33 608.169C161.549 608.361 161.745 608.444 161.917 608.42" stroke="black" stroke-width="2" stroke-linecap="round" stroke-linejoin="round"/>
<path d="M135.041 512.249C135.086 513.218 135.061 514.014 134.964 514.636C134.898 515.059 134.836 515.57 134.779 516.168C134.722 516.766 134.692 517.775 134.691 519.195C134.689 520.614 134.678 521.827 134.656 522.832C134.635 523.838 134.601 524.8 134.555 525.719C134.51 526.637 134.482 527.6 134.471 528.608C134.46 529.616 134.455 532.005 134.455 535.775C134.455 539.545 134.465 541.783 134.486 542.49C134.506 543.197 134.523 544.05 134.537 545.049C134.551 546.048 134.585 547.304 134.64 548.819C134.695 550.333 134.773 551.555 134.874 552.485C134.976 553.415 135.044 554.112 135.08 554.577C135.115 555.041 135.134 555.946 135.135 557.292C135.137 558.638 135.169 559.703 135.232 560.488C135.295 561.272 135.34 561.885 135.366 562.327C135.392 562.769 135.405 563.439 135.407 564.339C135.408 565.238 135.43 566.001 135.473 566.627C135.515 567.253 135.576 567.947 135.656 568.707C135.735 569.468 135.798 570.138 135.842 570.718C135.887 571.297 135.917 572.052 135.93 572.981C135.944 573.91 136.017 574.91 136.149 575.983C136.281 577.055 136.37 577.887 136.418 578.48C136.466 579.072 136.545 579.783 136.656 580.611C136.768 581.439 136.853 582.217 136.911 582.943C136.969 583.67 137.028 584.221 137.085 584.596C137.143 584.971 137.184 585.542 137.207 586.307C137.23 587.073 137.253 587.877 137.275 588.72C137.297 589.563 137.241 590.268 137.108 590.834C136.975 591.401 136.902 591.81 136.89 592.063C136.872 592.439 136.788 592.831 136.64 593.238" stroke="black" stroke-width="2" stroke-linecap="round" stroke-linejoin="round"/>
<path d="M134.455 593.238C134.523 593.529 134.664 593.817 134.879 594.104C135.094 594.391 135.307 594.646 135.518 594.869C135.729 595.092 136.011 595.353 136.365 595.651C136.719 595.95 137.053 596.294 137.366 596.683C137.678 597.073 138.012 597.442 138.367 597.791C138.722 598.14 139.021 598.412 139.264 598.607C139.508 598.802 139.77 598.998 140.05 599.193C140.33 599.388 140.664 599.664 141.053 600.021C141.441 600.379 141.793 600.655 142.108 600.852C142.423 601.048 142.695 601.243 142.924 601.437C143.153 601.631 143.444 601.848 143.798 602.089C144.152 602.329 144.769 602.708 145.648 603.225C146.528 603.742 147.364 604.205 148.156 604.613C148.949 605.022 149.609 605.362 150.136 605.633C150.664 605.905 151.045 606.114 151.28 606.259C151.515 606.405 151.816 606.546 152.182 606.684C152.548 606.821 152.833 606.948 153.035 607.064C153.237 607.181 153.617 607.322 154.175 607.487C154.732 607.652 155.164 607.769 155.469 607.837C155.775 607.905 156.125 607.964 156.52 608.012C156.915 608.061 157.19 608.109 157.345 608.158C157.5 608.206 157.748 608.236 158.088 608.247C158.599 608.264 159.103 608.323 159.603 608.424" stroke="black" stroke-width="2" stroke-linecap="round" stroke-linejoin="round"/>
<path d="M159.55 605.685C159.856 605.718 160.207 605.844 160.605 606.061C161.003 606.279 161.423 606.587 161.865 606.986C162.308 607.384 162.665 607.736 162.937 608.041C163.209 608.346 163.428 608.584 163.594 608.757C163.76 608.929 164.069 609.282 164.52 609.814C164.971 610.347 165.356 610.814 165.675 611.217C165.993 611.619 166.21 611.92 166.325 612.121C166.44 612.321 166.59 612.547 166.774 612.798C166.958 613.049 167.179 613.393 167.436 613.83C167.693 614.266 167.919 614.711 168.114 615.164C168.309 615.617 168.503 616.086 168.697 616.572C168.891 617.058 169.045 617.409 169.157 617.625C169.269 617.841 169.374 618.119 169.473 618.46C169.572 618.801 169.631 619.239 169.65 619.774C169.669 620.308 169.666 620.758 169.639 621.122C169.613 621.486 169.552 621.813 169.457 622.103C169.361 622.393 169.262 622.601 169.158 622.726C169.055 622.851 168.91 622.957 168.725 623.043C168.539 623.13 168.336 623.243 168.116 623.383C167.895 623.523 167.428 623.598 166.714 623.608C165.999 623.618 165.4 623.55 164.915 623.404C164.43 623.258 164.086 623.167 163.882 623.131C163.678 623.096 163.406 623.022 163.068 622.909C162.729 622.796 162.391 622.678 162.053 622.555C161.715 622.432 161.426 622.336 161.187 622.267C160.948 622.198 160.679 622.051 160.38 621.825C160.08 621.599 159.826 621.434 159.615 621.329C159.405 621.224 159.057 621.023 158.572 620.727C158.087 620.431 157.685 620.166 157.367 619.932C157.05 619.698 156.672 619.442 156.234 619.164C155.796 618.886 155.352 618.585 154.9 618.262C154.9 618.262 143.861 610.781 142.517 609.942C141.173 609.103 137.143 606.986 134.456 605.685C131.769 604.385 129.432 602.231 129.081 601.88C127.737 600.537 127.738 595.162 135.799 592.475" stroke="black" stroke-width="2" stroke-linecap="round" stroke-linejoin="round"/>
<path d="M173.774 152.856C173.42 152.382 173.143 151.924 172.945 151.482C172.811 151.184 172.686 150.859 172.571 150.506C172.457 150.154 172.323 149.792 172.17 149.422C172.018 149.052 171.812 148.606 171.553 148.085C171.294 147.563 171.087 147.152 170.93 146.852C170.773 146.551 170.648 146.189 170.555 145.765C170.462 145.342 170.347 144.906 170.212 144.458C170.077 144.01 169.973 143.595 169.901 143.212C169.828 142.829 169.771 142.372 169.728 141.842C169.685 141.312 169.663 140.863 169.662 140.495C169.661 140.127 169.691 139.69 169.753 139.185C169.815 138.681 169.954 138.199 170.17 137.741C170.387 137.284 170.563 136.82 170.699 136.349C170.835 135.879 170.908 135.388 170.918 134.876C170.928 134.363 170.887 134.001 170.797 133.787C170.665 133.473 170.552 133.08 170.459 132.608" stroke="black" stroke-width="2" stroke-linecap="round" stroke-linejoin="round"/>
<path d="M170.881 131.274C172.043 131.171 173.215 130.997 174.395 130.752C175.181 130.589 175.857 130.392 176.423 130.16C176.989 129.929 177.559 129.682 178.131 129.418C178.703 129.154 179.11 128.971 179.352 128.868C179.594 128.765 179.933 128.576 180.37 128.303C180.806 128.029 181.215 127.749 181.598 127.465C181.981 127.18 182.261 126.97 182.438 126.834C182.615 126.698 182.838 126.488 183.108 126.204C183.378 125.919 183.589 125.603 183.742 125.255C183.894 124.908 184.023 124.558 184.128 124.206C184.234 123.853 184.299 123.442 184.326 122.972C184.352 122.502 184.396 121.967 184.46 121.367C184.524 120.768 184.572 120.219 184.605 119.721C184.638 119.224 184.656 118.714 184.656 118.193C184.657 117.671 184.673 117.269 184.703 116.986C184.734 116.703 184.749 116.078 184.75 115.111C184.751 114.144 184.739 113.544 184.716 113.312C184.692 113.081 184.68 112.742 184.679 112.295C184.678 111.849 184.647 111.446 184.584 111.085C184.522 110.725 184.462 110.293 184.406 109.789C184.349 109.285 184.261 108.797 184.14 108.325C184.018 107.853 183.914 107.403 183.824 106.976C183.736 106.548 183.627 106.115 183.498 105.675C183.369 105.234 183.284 104.84 183.244 104.492C183.203 104.144 183.13 103.728 183.027 103.246C182.923 102.764 182.798 102.333 182.653 101.954C182.507 101.575 182.374 101.192 182.253 100.807C182.132 100.421 181.935 99.9924 181.66 99.5201C181.386 99.048 181.109 98.5646 180.828 98.07C180.548 97.5752 180.339 97.225 180.202 97.019C180.064 96.813 179.919 96.5647 179.766 96.2738C179.612 95.9832 179.459 95.729 179.305 95.5116C179.151 95.294 178.877 94.8529 178.482 94.1877C178.087 93.5228 177.765 93.023 177.515 92.6885C177.265 92.354 176.995 91.959 176.706 91.5034C176.416 91.0477 176.085 90.5879 175.712 90.124C175.339 89.6601 174.956 89.1162 174.561 88.4922C174.167 87.8682 173.909 87.4578 173.788 87.2604C173.667 87.0633 173.454 86.7795 173.148 86.4095C172.843 86.0393 172.613 85.7555 172.459 85.5579C172.305 85.3603 172.078 85.1529 171.778 84.936C171.479 84.7191 171.2 84.5549 170.943 84.4432C170.685 84.3316 170.39 84.1517 170.058 83.903C169.726 83.6544 169.455 83.4402 169.244 83.2606C169.033 83.0809 168.83 82.8451 168.634 82.5534C168.438 82.2616 168.293 82.0804 168.197 82.0092C168.101 81.9383 168.009 82.0713 167.922 82.4083C167.834 82.7453 167.768 83.1182 167.725 83.5273C167.683 83.9364 167.593 84.4253 167.458 84.9942C167.322 85.5632 167.183 86.0261 167.039 86.3831C166.895 86.7401 166.742 87.1754 166.579 87.6884C166.416 88.2016 166.267 88.6425 166.131 89.0111C165.996 89.3797 165.859 89.7693 165.722 90.1799C165.585 90.5906 165.468 90.9167 165.371 91.1582C165.273 91.3999 165.136 91.6964 164.958 92.0484C164.781 92.4002 164.539 92.8957 164.235 93.5347C163.93 94.1734 163.637 94.7678 163.355 95.3174C163.073 95.867 162.87 96.3039 162.747 96.6281C162.625 96.9524 162.475 97.3087 162.3 97.6971C162.124 98.0855 161.917 98.4757 161.679 98.8679C161.441 99.2602 161.245 99.5974 161.092 99.8798C160.939 100.162 160.754 100.394 160.536 100.576C160.318 100.757 160.116 100.892 159.93 100.978C159.744 101.065 159.463 101.108 159.088 101.11C158.713 101.11 158.375 101.06 158.076 100.958C157.776 100.856 157.288 100.8 156.611 100.79C155.933 100.78 155.121 100.771 154.173 100.763C153.225 100.754 152.648 100.791 152.442 100.874C152.237 100.957 152 101.063 151.734 101.192C151.467 101.321 151.079 101.463 150.57 101.62C150.061 101.776 149.63 101.905 149.279 102.006C148.927 102.108 148.638 102.221 148.41 102.347C148.183 102.472 147.932 102.652 147.656 102.885C147.38 103.118 147.131 103.355 146.911 103.596C146.691 103.837 146.444 104.157 146.172 104.556C145.899 104.955 145.645 105.386 145.41 105.85C145.176 106.314 145.004 106.725 144.897 107.083C144.79 107.442 144.704 107.766 144.639 108.056C144.575 108.347 144.534 108.861 144.516 109.597C144.499 110.333 144.563 110.901 144.707 111.299C144.852 111.698 144.988 111.979 145.115 112.142C145.242 112.305 145.542 112.553 146.014 112.887C146.487 113.221 146.832 113.452 147.05 113.581C147.267 113.709 147.505 113.826 147.764 113.93C148.023 114.035 148.394 114.122 148.879 114.192C149.363 114.261 149.771 114.318 150.101 114.363C150.432 114.407 150.731 114.43 151 114.431C151.268 114.432 151.601 114.466 151.999 114.533C152.396 114.601 152.732 114.669 153.006 114.737C153.281 114.805 153.535 114.844 153.77 114.853C154.006 114.863 154.191 114.888 154.327 114.93C154.462 114.972 154.648 114.994 154.885 114.994C155.121 114.995 155.239 115.105 155.24 115.324C155.241 115.542 155.15 115.891 154.966 116.369C154.782 116.847 154.638 117.236 154.533 117.536C154.429 117.836 154.296 118.178 154.134 118.562C153.972 118.947 153.811 119.446 153.651 120.06C153.491 120.673 153.301 121.375 153.082 122.164C152.862 122.953 152.704 123.603 152.607 124.113C152.511 124.623 152.43 125.168 152.364 125.747C152.299 126.326 152.258 126.831 152.242 127.261C152.226 127.691 152.205 128.128 152.182 128.572C152.158 129.016 152.146 129.932 152.145 131.322C152.144 132.712 152.176 133.652 152.239 134.142C152.303 134.631 152.378 135.099 152.466 135.545C152.554 135.992 152.622 136.399 152.67 136.768C152.717 137.136 152.798 137.582 152.91 138.105C153.022 138.628 153.127 139.069 153.225 139.427C153.322 139.786 153.456 140.173 153.624 140.587C153.793 141.002 153.946 141.299 154.082 141.48C154.219 141.66 154.349 141.909 154.472 142.227C154.595 142.545 154.709 142.79 154.813 142.961C154.918 143.133 154.998 143.3 155.055 143.464C155.111 143.627 155.276 143.824 155.548 144.056C155.821 144.287 156.058 144.446 156.26 144.534C156.462 144.621 156.703 144.767 156.984 144.971C157.266 145.175 157.551 145.345 157.841 145.482C158.131 145.619 158.349 145.748 158.494 145.868C158.64 145.988 158.958 146.155 159.449 146.37C159.941 146.584 160.307 146.751 160.55 146.872C160.793 146.992 161.023 147.091 161.239 147.168C161.456 147.246 161.76 147.434 162.149 147.732C162.538 148.031 162.844 148.232 163.068 148.335C163.291 148.438 163.541 148.612 163.816 148.857C164.091 149.103 164.313 149.283 164.482 149.399C164.651 149.514 164.862 149.616 165.114 149.702C165.367 149.789 165.606 149.905 165.833 150.05C166.059 150.195 166.289 150.357 166.524 150.536C166.758 150.715 167.032 150.957 167.347 151.263C167.663 151.57 167.913 151.805 168.098 151.97C168.284 152.135 168.494 152.3 168.729 152.464C168.965 152.628 169.203 152.736 169.444 152.788C169.685 152.84 169.91 152.862 170.118 152.856C170.326 152.85 170.56 152.753 170.82 152.567C171.204 152.293 171.689 151.997 172.274 151.679" stroke="black" stroke-width="2" stroke-linecap="round" stroke-linejoin="round"/>
<path d="M184.751 97.7616C184.685 97.2796 184.655 96.6114 184.662 95.7571C184.669 94.9026 184.639 94.3015 184.573 93.9532C184.506 93.6051 184.425 93.2825 184.332 92.9857C184.239 92.6887 184.171 92.3254 184.128 91.8952C184.085 91.4652 183.907 90.9149 183.594 90.2438C183.281 89.5729 183.056 89.1391 182.918 88.9425C182.78 88.7458 182.681 88.5591 182.619 88.3822C182.558 88.2056 182.506 87.9779 182.464 87.6994C182.423 87.4209 182.368 87.188 182.301 87.0003C182.234 86.8127 182.082 86.5483 181.844 86.2073C181.606 85.8662 181.409 85.5512 181.254 85.2621C181.099 84.9732 180.954 84.7286 180.819 84.5286C180.683 84.3286 180.451 84.075 180.121 83.7679C179.791 83.4608 179.488 83.1917 179.212 82.9609C178.936 82.7301 178.687 82.4538 178.464 82.132C178.241 81.8101 178.011 81.5518 177.775 81.3567C177.538 81.1617 177.309 80.9907 177.086 80.8442C176.864 80.6975 176.585 80.4887 176.249 80.2178C175.914 79.9467 175.505 79.7177 175.024 79.5303C174.543 79.3429 174.194 79.2067 173.978 79.1219C173.762 79.0371 173.488 78.8897 173.157 78.6794C172.826 78.4692 172.466 78.2919 172.077 78.1479C171.688 78.0037 171.335 77.8892 171.018 77.8042C170.701 77.7193 170.43 77.6305 170.205 77.5376C169.981 77.4444 169.685 77.2628 169.318 76.9924C168.952 76.7222 168.494 76.4466 167.946 76.166C167.398 75.8852 166.898 75.6427 166.444 75.4382C165.991 75.2334 165.654 75.0595 165.432 74.9162C165.211 74.7729 164.702 74.5614 163.903 74.2817C163.105 74.0019 162.534 73.7937 162.192 73.6569C161.849 73.5202 161.463 73.4002 161.035 73.2972C160.607 73.1941 160.149 73.0958 159.66 73.002C159.172 72.9082 158.736 72.8146 158.353 72.7208C157.969 72.6272 157.506 72.5464 156.963 72.4787C156.42 72.411 155.949 72.3396 155.549 72.2649C155.149 72.19 154.659 72.1176 154.08 72.0474C153.501 71.9772 152.836 71.9297 152.085 71.905C151.335 71.8804 150.289 71.8676 148.948 71.8667C147.607 71.866 146.747 71.8935 146.37 71.9495C145.994 72.0055 145.571 72.089 145.103 72.1995C144.635 72.3099 144.15 72.4326 143.647 72.5669C143.144 72.7014 142.512 72.8877 141.75 73.1255C140.989 73.3636 140.448 73.5253 140.129 73.611C139.809 73.6968 139.457 73.7701 139.074 73.8306C138.69 73.8912 138.276 73.9843 137.833 74.1096C137.389 74.2352 136.939 74.3785 136.483 74.5398C136.026 74.7011 135.543 74.8498 135.033 74.9862C134.523 75.1225 133.998 75.2843 133.457 75.4715C132.916 75.6587 132.453 75.815 132.065 75.9404C131.678 76.0659 131.208 76.2666 130.655 76.5427C130.102 76.8187 129.487 77.1726 128.811 77.6041C128.135 78.0359 127.603 78.3594 127.217 78.5752C126.83 78.7907 126.349 79.0933 125.774 79.483C125.199 79.8729 124.791 80.1404 124.552 80.2858C124.312 80.4314 123.929 80.7643 123.402 81.285C122.875 81.8058 122.491 82.2072 122.248 82.4893C122.006 82.7717 121.722 83.1834 121.397 83.7243C121.072 84.2654 120.854 84.6335 120.742 84.8285C120.631 85.0238 120.489 85.3681 120.315 85.8612C120.142 86.3546 120.005 86.8615 119.904 87.3817C119.802 87.9021 119.709 88.3357 119.623 88.6824C119.537 89.0291 119.443 89.5625 119.341 90.2825C119.239 91.0024 119.136 91.6162 119.034 92.1238C118.932 92.6314 118.833 93.1117 118.739 93.5651C118.644 94.0184 118.592 94.7094 118.583 95.6383C118.574 96.5671 118.569 97.7557 118.569 99.2042C118.569 100.653 118.602 101.685 118.668 102.302C118.734 102.919 118.776 103.563 118.795 104.233C118.813 104.904 118.843 105.465 118.883 105.917C118.924 106.368 118.995 106.843 119.096 107.34C119.197 107.837 119.291 108.349 119.376 108.874C119.462 109.4 119.56 110.086 119.67 110.934C119.781 111.782 119.917 112.642 120.078 113.515C120.239 114.388 120.38 115.226 120.5 116.027C120.62 116.828 120.736 117.624 120.85 118.416C120.963 119.207 121.03 119.936 121.049 120.603C121.068 121.27 121.106 121.943 121.163 122.622C121.22 123.3 121.262 123.872 121.289 124.336C121.316 124.8 121.33 125.483 121.33 126.385C121.331 127.286 121.294 128.038 121.219 128.638C121.143 129.239 121.055 129.845 120.955 130.456C120.855 131.067 120.723 131.712 120.56 132.389C120.397 133.066 120.277 133.537 120.199 133.802C120.12 134.068 120.007 134.359 119.858 134.676C119.709 134.992 119.5 135.366 119.23 135.797C118.959 136.227 118.676 136.641 118.379 137.039C118.082 137.436 117.794 137.796 117.516 138.119C117.237 138.443 116.804 138.838 116.218 139.304C115.631 139.77 114.945 140.346 114.16 141.032C113.375 141.717 112.735 142.251 112.24 142.634C111.745 143.016 111.211 143.419 110.639 143.841C110.067 144.264 109.538 144.704 109.053 145.161C108.567 145.619 108.128 146.017 107.734 146.357C107.34 146.696 106.997 146.977 106.705 147.2C106.413 147.422 106.072 147.67 105.682 147.943C105.292 148.215 104.793 148.588 104.184 149.061C103.575 149.533 103.06 149.901 102.638 150.163C102.215 150.426 101.664 150.776 100.986 151.214C100.307 151.652 99.7294 152.014 99.2527 152.3C98.7763 152.585 98.1438 152.935 97.3553 153.347C96.567 153.76 96.0067 154.049 95.6745 154.213C95.3423 154.378 94.9947 154.576 94.6315 154.809C94.2685 155.042 93.7105 155.457 92.9576 156.052C92.2046 156.647 91.4768 157.218 90.7741 157.764C90.0714 158.31 89.4555 158.799 88.9262 159.233C88.397 159.666 87.9491 160.058 87.5825 160.41C87.2158 160.762 86.5994 161.401 85.733 162.327C84.8666 163.254 84.2119 163.987 83.769 164.527C83.3258 165.067 82.8349 165.676 82.2959 166.355C81.757 167.033 81.2694 167.678 80.8335 168.289C80.3976 168.901 80.0427 169.415 79.7689 169.831C79.4952 170.247 79.2415 170.666 79.0081 171.089C78.7746 171.512 78.5164 172.029 78.2338 172.638C77.951 173.248 77.6905 173.821 77.4519 174.357C77.2134 174.892 76.9399 175.629 76.6312 176.567C76.3228 177.505 76.027 178.526 75.744 179.629C75.4611 180.732 75.2589 181.586 75.1373 182.189C75.0157 182.793 74.8785 183.569 74.7258 184.518C74.573 185.466 74.462 186.158 74.3929 186.592C74.3239 187.027 74.2713 187.604 74.2351 188.323C74.1989 189.042 74.1721 189.808 74.1549 190.622C74.1377 191.436 74.1241 192.242 74.1149 193.041C74.1053 193.839 74.1006 194.643 74.1006 195.452C74.1006 196.26 74.147 196.977 74.2396 197.602C74.3325 198.226 74.3966 198.691 74.4319 198.996C74.4672 199.301 74.5644 199.751 74.7238 200.347C74.883 200.942 75.066 201.676 75.272 202.548C75.4783 203.419 75.623 204.05 75.7059 204.442C75.789 204.834 75.9287 205.34 76.1253 205.961C76.3216 206.581 76.5336 207.124 76.7607 207.59C76.9881 208.055 77.1971 208.583 77.3876 209.173C77.578 209.764 77.7288 210.28 77.8405 210.723C77.9519 211.166 78.0637 211.569 78.1761 211.934C78.2884 212.299 78.4537 212.74 78.6718 213.256C78.8901 213.772 79.059 214.187 79.1788 214.5C79.2988 214.813 79.4571 215.23 79.6539 215.751C79.8509 216.273 80.0778 216.778 80.3351 217.268C80.5923 217.758 80.7984 218.192 80.9535 218.57C81.1084 218.949 81.2726 219.411 81.4454 219.956C81.6184 220.502 81.7719 221.004 81.906 221.462C82.04 221.92 82.1834 222.396 82.336 222.888C82.4889 223.38 82.6 223.75 82.6698 223.998C82.7395 224.246 82.7966 224.594 82.841 225.04C82.8854 225.487 82.9508 226.054 83.0373 226.741C83.1241 227.428 83.1714 228.521 83.1795 230.02C83.1875 231.519 83.1247 232.705 82.9914 233.577C82.8578 234.45 82.7513 235.267 82.6723 236.03C82.5933 236.792 82.5244 237.327 82.4658 237.633C82.4073 237.94 82.2905 238.366 82.1152 238.911C81.9402 239.456 81.795 240.024 81.6795 240.615C81.564 241.206 81.4766 241.677 81.4168 242.028C81.3573 242.379 81.2096 242.921 80.9746 243.656C80.7393 244.391 80.5572 244.912 80.4286 245.22C80.3 245.527 80.1032 245.888 79.8385 246.303C79.5737 246.718 79.3554 247.103 79.1836 247.458C79.0117 247.814 78.8149 248.272 78.5932 248.831C78.3717 249.391 78.1928 249.832 78.0565 250.155C77.9202 250.478 77.7614 250.952 77.5805 251.577C77.3996 252.203 77.2616 252.736 77.1668 253.176C77.0716 253.616 77.0116 254.026 76.9863 254.405C76.9611 254.784 76.9482 255.356 76.948 256.121C76.9478 256.885 76.91 257.55 76.8343 258.115C76.7587 258.679 76.6991 259.314 76.6559 260.019C76.5922 261.052 76.5732 262.451 76.5993 264.217" stroke="black" stroke-width="2" stroke-linecap="round" stroke-linejoin="round"/>
<path d="M155.364 148.085C155.373 147.908 155.262 147.812 155.03 147.797C154.866 147.786 154.742 147.815 154.656 147.881C154.57 147.948 154.526 148.12 154.525 148.395C154.524 148.67 154.58 149.003 154.694 149.393C154.808 149.783 154.923 150.1 155.04 150.345C155.157 150.59 155.262 150.868 155.355 151.179C155.448 151.49 155.551 151.776 155.666 152.036C155.781 152.296 155.948 152.609 156.167 152.972C156.387 153.336 156.554 153.637 156.67 153.875C156.785 154.113 156.95 154.33 157.166 154.524C157.381 154.718 157.574 154.949 157.744 155.216C157.915 155.483 158.049 155.71 158.148 155.897C158.247 156.084 158.421 156.304 158.67 156.557C158.918 156.81 159.108 157.126 159.238 157.504C159.367 157.882 159.454 158.217 159.496 158.51C159.539 158.803 159.56 159.122 159.561 159.468C159.562 159.814 159.439 160.485 159.191 161.482C158.943 162.48 158.712 163.276 158.495 163.872C158.279 164.467 158.031 165.102 157.749 165.776C157.468 166.45 157.149 167.223 156.791 168.096C156.434 168.969 156.093 169.726 155.769 170.366C155.444 171.006 155.172 171.582 154.952 172.093C154.732 172.605 154.554 173.072 154.419 173.494C154.283 173.917 154.107 174.612 153.89 175.58C153.673 176.548 153.485 177.355 153.324 178.002C153.164 178.649 153.041 179.172 152.955 179.569C152.869 179.967 152.81 180.271 152.778 180.482C152.746 180.692 152.659 181.068 152.519 181.609C152.378 182.15 152.253 182.774 152.144 183.479C152.035 184.184 151.917 184.85 151.789 185.475C151.661 186.1 151.577 186.783 151.535 187.524C151.493 188.265 151.456 188.854 151.421 189.291C151.387 189.729 151.365 190.848 151.358 192.649C151.35 194.451 151.378 195.582 151.443 196.043C151.508 196.505 151.602 197.008 151.725 197.553C151.848 198.097 151.944 198.678 152.012 199.295C152.081 199.913 152.131 200.32 152.164 200.518C152.197 200.717 152.305 201.059 152.489 201.546C152.673 202.033 152.839 202.58 152.987 203.185C153.136 203.791 153.301 204.351 153.483 204.866C153.665 205.381 153.874 206.041 154.111 206.845C154.348 207.65 154.551 208.369 154.719 209.002C154.888 209.635 155.03 210.109 155.145 210.424C155.26 210.74 155.412 211.245 155.603 211.94C155.793 212.635 155.961 213.194 156.105 213.616C156.249 214.038 156.387 214.407 156.518 214.723C156.65 215.039 156.804 215.382 156.98 215.751C157.156 216.121 157.345 216.573 157.548 217.108C157.75 217.643 157.913 218.121 158.035 218.543C158.157 218.964 158.314 219.386 158.505 219.809C158.696 220.232 158.877 220.59 159.047 220.883C159.218 221.176 159.384 221.525 159.548 221.929C159.711 222.333 159.891 222.812 160.087 223.366C160.283 223.92 160.492 224.446 160.713 224.944C160.934 225.443 161.194 225.986 161.494 226.575C161.794 227.165 162.111 227.869 162.444 228.69C162.776 229.51 163.062 230.17 163.301 230.67C163.539 231.17 163.804 231.711 164.096 232.293C164.387 232.875 164.709 233.548 165.06 234.312C165.411 235.076 165.671 235.657 165.84 236.054C166.009 236.451 166.139 236.784 166.23 237.051C166.322 237.319 166.443 237.752 166.594 238.35C166.745 238.948 166.911 239.57 167.092 240.218C167.273 240.865 167.436 241.42 167.581 241.884C167.725 242.347 167.885 242.916 168.06 243.59C168.235 244.264 168.388 244.855 168.52 245.362C168.652 245.87 168.819 246.625 169.022 247.628C169.224 248.631 169.364 249.417 169.44 249.987C169.517 250.557 169.564 251.193 169.581 251.896C169.598 252.598 169.616 253.16 169.634 253.583C169.652 254.006 169.662 254.607 169.662 255.388C169.662 256.168 169.637 256.811 169.588 257.317C169.54 257.822 169.469 258.327 169.377 258.83C169.286 259.333 169.174 259.889 169.042 260.497C168.911 261.105 168.781 261.652 168.654 262.138C168.527 262.625 168.337 263.229 168.085 263.95C167.833 264.671 167.544 265.448 167.22 266.279C166.896 267.11 166.556 267.886 166.2 268.606C165.844 269.326 165.487 270.022 165.129 270.695C164.772 271.367 164.473 271.907 164.234 272.315C163.995 272.723 163.7 273.181 163.349 273.69C162.998 274.199 162.666 274.662 162.353 275.079C162.041 275.497 161.71 275.966 161.361 276.487C161.011 277.008 160.659 277.497 160.305 277.955C159.95 278.413 159.656 278.774 159.424 279.036C159.191 279.299 158.787 279.771 158.21 280.451C157.634 281.132 157.155 281.665 156.773 282.051C156.391 282.436 156.017 282.798 155.649 283.135C155.281 283.472 154.91 283.834 154.536 284.219C154.162 284.605 153.832 284.957 153.547 285.277C153.262 285.596 152.914 285.964 152.502 286.381C152.091 286.799 151.668 287.177 151.235 287.517C150.801 287.856 150.427 288.139 150.113 288.364C149.798 288.589 149.462 288.84 149.106 289.116C148.749 289.392 148.307 289.732 147.78 290.136C147.253 290.539 146.83 290.835 146.512 291.023C146.194 291.211 145.794 291.418 145.312 291.644C144.829 291.87 144.455 292.059 144.187 292.211C143.92 292.363 143.54 292.597 143.047 292.914C142.554 293.231 142.041 293.53 141.506 293.809C140.972 294.089 140.48 294.309 140.031 294.471C139.582 294.633 139.028 294.82 138.369 295.03C137.709 295.241 137 295.482 136.239 295.754C135.479 296.025 134.835 296.258 134.309 296.451C133.782 296.645 133.243 296.817 132.694 296.968C132.145 297.118 131.409 297.302 130.487 297.517C129.565 297.733 128.838 297.912 128.307 298.053C127.776 298.195 127.136 298.331 126.39 298.462C125.643 298.592 124.712 298.721 123.599 298.846C122.486 298.972 121.643 299.073 121.071 299.149C120.499 299.225 119.95 299.306 119.424 299.392C118.897 299.478 118.384 299.542 117.884 299.585C117.385 299.628 116.585 299.65 115.487 299.651C114.389 299.652 113.614 299.633 113.163 299.592C112.712 299.552 112.106 299.511 111.345 299.469C110.583 299.427 109.925 299.401 109.369 299.392C108.813 299.383 108.399 299.37 108.126 299.354C107.854 299.338 107.486 299.276 107.023 299.168C106.56 299.06 106.166 298.94 105.842 298.809C105.518 298.677 104.996 298.397 104.278 297.967C103.56 297.537 102.999 297.241 102.598 297.08C102.196 296.918 101.594 296.74 100.792 296.545C99.9898 296.35 99.4896 296.217 99.2914 296.146C99.0929 296.074 98.8007 295.929 98.4144 295.709C98.0283 295.489 97.5599 295.165 97.0092 294.736C96.4585 294.307 95.8527 293.848 95.1919 293.358C94.5309 292.869 93.9953 292.485 93.5849 292.206C93.1744 291.928 92.802 291.679 92.4678 291.462C92.1333 291.244 91.8414 291.031 91.5917 290.823C91.3419 290.615 91.0586 290.351 90.7413 290.032C90.4244 289.713 90.0343 289.271 89.5711 288.706C89.1082 288.141 88.7413 287.664 88.4704 287.275C88.1995 286.886 87.8245 286.39 87.3454 285.787C86.8663 285.184 86.4602 284.639 86.1269 284.152C85.7935 283.665 85.4818 283.167 85.1917 282.659C84.9015 282.15 84.6447 281.706 84.4212 281.327C84.1977 280.948 84.0024 280.595 83.8349 280.268C83.6674 279.941 83.4772 279.529 83.2643 279.032C83.0514 278.534 82.8594 278.064 82.6879 277.62C82.5167 277.177 82.3568 276.73 82.2084 276.278C82.0597 275.827 81.8393 275.237 81.5469 274.51C81.2545 273.782 81.0164 273.157 80.8323 272.637C80.6483 272.116 80.4008 271.455 80.0896 270.652C79.7786 269.849 79.5686 269.197 79.4596 268.695C79.3507 268.194 79.2656 267.765 79.204 267.409C79.1139 266.886 79.1059 266.22 79.1803 265.409" stroke="black" stroke-width="2" stroke-linecap="round" stroke-linejoin="round"/>
<path d="M456.385 92.5319C456.206 92.2778 456.683 92.1401 457.815 92.1181C458.947 92.0964 459.915 92.156 460.718 92.2968C461.522 92.4376 462.306 92.6449 463.072 92.9189C463.837 93.1931 464.689 93.5224 465.626 93.9065C466.564 94.2907 467.504 94.7501 468.446 95.2845C469.388 95.819 470.168 96.1824 470.787 96.3748C471.405 96.5672 472.036 96.6827 472.68 96.7205C473.324 96.7587 474.394 97.0681 475.888 97.6493C477.382 98.2304 478.537 98.6415 479.353 98.8831C480.169 99.1247 481.174 99.5559 482.367 100.177C483.559 100.798 484.527 101.285 485.268 101.638C486.01 101.991 486.831 102.414 487.73 102.909C488.63 103.403 489.423 103.862 490.108 104.284C490.794 104.707 491.641 105.159 492.651 105.64C493.66 106.121 494.528 106.493 495.254 106.757C495.98 107.021 496.87 107.465 497.922 108.089C498.975 108.712 499.791 109.237 500.371 109.664C500.951 110.09 501.55 110.523 502.168 110.961C502.787 111.399 503.494 112.159 504.291 113.243C505.087 114.326 505.811 115.417 506.462 116.516C507.112 117.616 507.593 118.409 507.902 118.897C508.211 119.384 508.563 120.077 508.956 120.974C509.35 121.872 509.88 123.011 510.548 124.39C511.217 125.769 511.866 127.268 512.497 128.888C513.129 130.507 513.589 131.711 513.879 132.501C514.169 133.291 514.623 134.437 515.241 135.938C515.858 137.439 516.546 139.118 517.304 140.977C518.063 142.835 518.758 144.633 519.392 146.371C520.025 148.108 520.548 149.583 520.96 150.795C521.373 152.007 521.788 153.132 522.205 154.169C522.622 155.206 522.967 156.161 523.242 157.034C523.516 157.908 523.87 158.871 524.305 159.923C524.739 160.976 525.046 161.748 525.223 162.239C525.401 162.73 525.58 163.353 525.761 164.107C525.942 164.861 526.184 165.561 526.489 166.207C526.793 166.853 527.12 167.706 527.468 168.766C527.816 169.827 528.214 170.951 528.662 172.139C529.11 173.327 529.534 174.312 529.934 175.095C530.334 175.878 530.605 176.434 530.749 176.763C530.962 177.249 531.309 177.717 531.792 178.166" stroke="black" stroke-width="2" stroke-linecap="round" stroke-linejoin="round"/>
<path d="M536.821 184.205C536.814 183.778 536.491 183.499 535.852 183.367C535.41 183.275 533.99 183.229 531.594 183.229C529.197 183.228 527.246 183.335 525.741 183.549C524.236 183.763 522.496 184.062 520.524 184.447C518.551 184.833 517.085 185.145 516.126 185.386C515.166 185.627 514.128 185.886 513.013 186.163C511.898 186.44 510.831 186.752 509.813 187.099C508.795 187.446 507.806 187.804 506.848 188.172C505.889 188.54 505.049 188.801 504.329 188.953C503.608 189.106 502.863 189.354 502.095 189.699C501.326 190.043 500.574 190.345 499.838 190.605C499.102 190.866 498.167 191.148 497.031 191.452C495.896 191.757 494.853 192.018 493.903 192.237C492.953 192.455 492.019 192.598 491.1 192.665C490.181 192.732 489.298 192.84 488.45 192.99C487.602 193.139 486.738 193.237 485.857 193.283C484.977 193.329 483.79 193.352 482.296 193.352C480.803 193.352 479.683 193.27 478.938 193.103C478.192 192.937 477.528 192.766 476.947 192.589C476.365 192.411 475.51 192.248 474.38 192.098C473.251 191.949 472.206 191.753 471.246 191.513C470.285 191.272 469.46 191.033 468.771 190.795C467.716 190.431 466.928 189.963 466.407 189.39" stroke="black" stroke-width="2" stroke-linecap="round" stroke-linejoin="round"/>
<path d="M471.438 193.352C470.734 193.903 470.009 194.614 469.262 195.485C468.514 196.357 467.822 197.297 467.185 198.307C466.548 199.317 465.896 200.355 465.229 201.422C464.563 202.488 463.784 203.667 462.892 204.957C462.001 206.247 461.254 207.278 460.652 208.049C460.05 208.82 459.281 209.932 458.345 211.384C457.41 212.836 456.473 214.267 455.535 215.675C454.597 217.083 453.66 218.64 452.722 220.345C451.785 222.051 451.03 223.395 450.457 224.378C449.883 225.362 449.435 226.336 449.109 227.301C448.784 228.266 448.465 229.021 448.15 229.566" stroke="black" stroke-width="2" stroke-linecap="round" stroke-linejoin="round"/>
<path d="M275.284 152.857C276.108 152.932 277.047 153.329 278.101 154.048C279.156 154.768 279.965 155.299 280.528 155.641C281.09 155.983 281.806 156.498 282.675 157.186C283.543 157.874 284.233 158.445 284.743 158.899C285.253 159.354 285.872 159.791 286.6 160.212C287.329 160.632 288.038 160.995 288.729 161.301C289.421 161.606 290.181 162.026 291.011 162.56C291.841 163.094 292.77 163.897 293.799 164.969C294.827 166.041 295.804 166.986 296.728 167.803C297.652 168.621 298.366 169.276 298.869 169.77C299.373 170.263 299.971 170.909 300.664 171.71C301.357 172.51 302.111 173.493 302.927 174.66C303.742 175.828 304.42 176.776 304.96 177.505C305.501 178.235 306.106 179.13 306.777 180.19C307.448 181.25 307.978 182.053 308.365 182.6C308.753 183.147 309.485 184.287 310.562 186.02C311.639 187.752 312.318 188.802 312.6 189.17C312.882 189.538 313.223 190.162 313.624 191.043C314.024 191.923 314.42 192.449 314.809 192.619C315.199 192.79 315.436 193.034 315.521 193.351" stroke="black" stroke-width="2" stroke-linecap="round" stroke-linejoin="round"/>
<path d="M315.521 191.718C315.605 191.421 315.898 191.199 316.401 191.054C316.903 190.908 317.455 190.793 318.058 190.71C318.66 190.626 319.395 190.385 320.262 189.987C321.13 189.589 322.139 189.346 323.29 189.259C324.441 189.172 325.2 189.08 325.567 188.983C325.934 188.885 326.744 188.834 327.996 188.831C329.249 188.827 330.12 188.647 330.61 188.289" stroke="black" stroke-width="2" stroke-linecap="round" stroke-linejoin="round"/>
<path d="M325.651 193.352C325.483 194.104 325.61 194.819 326.031 195.497C326.316 195.955 326.544 196.492 326.715 197.11C326.887 197.728 327.045 198.38 327.187 199.067C327.33 199.754 327.58 200.464 327.937 201.194C328.294 201.926 328.623 202.735 328.923 203.624C329.224 204.512 329.441 205.265 329.574 205.884C329.707 206.502 329.983 207.328 330.403 208.363C330.823 209.397 331.216 210.416 331.582 211.419C331.948 212.422 332.358 213.36 332.812 214.232C333.267 215.103 333.592 215.713 333.787 216.06C333.982 216.407 334.229 216.931 334.528 217.633C334.826 218.335 335.132 219.004 335.446 219.64C335.76 220.276 336.186 220.978 336.723 221.747C337.261 222.516 337.634 223.133 337.845 223.599C338.056 224.065 338.263 224.471 338.466 224.816C338.668 225.162 338.94 225.497 339.281 225.821C339.621 226.145 340.039 226.677 340.532 227.419C341.026 228.16 341.568 228.797 342.158 229.33C342.749 229.864 343.207 230.296 343.535 230.628C343.863 230.96 344.168 231.414 344.451 231.988C344.733 232.563 344.972 232.879 345.166 232.938C345.444 233.022 345.622 233.325 345.697 233.847" stroke="black" stroke-width="2" stroke-linecap="round" stroke-linejoin="round"/>
<path d="M446.288 228.784C445.573 229.418 444.725 229.975 443.745 230.454C443.098 230.77 442.276 231.109 441.277 231.471C440.278 231.832 439.444 232.16 438.776 232.454C438.107 232.748 437.481 232.983 436.897 233.16C436.312 233.336 435.605 233.525 434.776 233.728C433.946 233.932 433.243 234.09 432.667 234.204C432.092 234.318 431.288 234.442 430.255 234.575C429.223 234.708 427.915 234.921 426.334 235.212C424.753 235.504 423.662 235.723 423.06 235.871C422.459 236.02 421.808 236.2 421.108 236.411C420.408 236.623 419.467 236.858 418.286 237.117C417.104 237.376 415.932 237.575 414.766 237.713C413.601 237.852 412.525 237.946 411.539 237.995C410.552 238.044 409.42 238.117 408.141 238.213C406.863 238.309 405.844 238.407 405.084 238.507C404.324 238.608 403.655 238.682 403.076 238.729C402.498 238.777 401.669 238.818 400.59 238.853C399.51 238.887 398.197 238.906 396.651 238.907C395.104 238.909 393.931 238.886 393.131 238.838C392.332 238.789 391.248 238.756 389.88 238.738C388.512 238.721 387.317 238.712 386.294 238.712C385.272 238.712 384.32 238.687 383.44 238.637C382.56 238.586 381.408 238.498 379.983 238.37C378.558 238.242 377.433 238.153 376.607 238.103C375.782 238.052 374.9 237.979 373.962 237.883C373.024 237.787 371.791 237.6 370.263 237.32C368.734 237.041 367.268 236.778 365.863 236.532C364.458 236.286 362.791 235.967 360.86 235.575C358.929 235.183 357.548 234.903 356.719 234.736C355.889 234.57 355.158 234.454 354.525 234.391C353.893 234.328 353.026 234.285 351.925 234.265C350.824 234.244 349.966 234.204 349.35 234.144C348.735 234.084 348.243 234.022 347.876 233.958C347.509 233.894 347.113 233.787 346.688 233.64C346.263 233.492 345.933 233.275 345.697 232.989" stroke="black" stroke-width="2" stroke-linecap="round" stroke-linejoin="round"/>
<path d="M345.697 239.642C345.658 239.769 345.519 240.289 345.253 241C344.988 241.712 344.649 242.797 344.237 244.256C343.825 245.714 343.476 246.829 343.19 247.601C342.905 248.372 342.463 249.327 341.865 250.466C341.267 251.605 340.792 252.58 340.44 253.393C340.088 254.205 339.755 255.187 339.44 256.338C339.125 257.49 338.903 258.363 338.776 258.958C338.648 259.553 338.246 260.946 337.57 263.138C336.894 265.329 336.401 267.004 336.092 268.163C335.783 269.322 335.532 270.338 335.339 271.212C335.148 272.086 334.826 273.322 334.375 274.921C333.924 276.52 333.551 277.936 333.257 279.17C332.963 280.404 332.757 281.335 332.639 281.963C332.52 282.59 332.207 283.728 331.696 285.378C331.186 287.027 330.763 288.303 330.428 289.206C330.094 290.11 329.813 290.911 329.586 291.61C329.359 292.308 329.119 293.288 328.866 294.548C328.612 295.808 328.167 297.48 327.529 299.564C326.892 301.647 326.487 303.061 326.316 303.806C326.144 304.551 325.937 305.611 325.693 306.985C325.45 308.359 325.206 309.483 324.963 310.356C324.719 311.229 324.434 312.167 324.107 313.172C323.78 314.177 323.415 315.421 323.013 316.904C322.611 318.386 322.225 319.912 321.854 321.482C321.484 323.052 321.131 324.482 320.798 325.771C320.464 327.06 320.182 328.472 319.951 330.006C319.72 331.54 319.484 332.987 319.241 334.349C318.999 335.711 318.765 336.879 318.54 337.854C318.315 338.829 318.094 340.066 317.877 341.565C317.659 343.064 317.378 344.628 317.033 346.255C316.687 347.882 316.39 349.355 316.143 350.673C315.895 351.992 315.688 353.293 315.521 354.577C315.354 355.86 315.188 357.307 315.023 358.917C314.858 360.526 314.579 362.712 314.187 365.474C313.794 368.236 313.484 370.265 313.257 371.563C313.03 372.86 312.802 374.313 312.574 375.922C312.346 377.53 312.151 378.766 311.988 379.629C311.825 380.492 311.518 381.858 311.067 383.727C310.617 385.597 310.203 387.226 309.828 388.616C309.454 390.006 309.142 391.399 308.892 392.795C308.643 394.192 308.453 395.548 308.323 396.865C308.194 398.182 308.078 399.619 307.976 401.175C307.873 402.732 307.655 404.761 307.322 407.263C306.989 409.765 306.74 411.691 306.575 413.042C306.41 414.392 306.242 416.186 306.073 418.425C305.904 420.663 305.788 422.81 305.725 424.866C305.662 426.923 305.61 428.728 305.568 430.284C305.526 431.839 305.494 433.571 305.471 435.48C305.448 437.389 305.465 438.66 305.524 439.293C305.582 439.927 305.704 440.625 305.889 441.388C306.074 442.151 306.25 443.142 306.418 444.362C306.585 445.582 306.72 446.69 306.822 447.685C306.925 448.681 307.08 449.731 307.288 450.837C307.496 451.943 307.672 452.938 307.817 453.822C307.961 454.706 308.189 455.93 308.5 457.496C308.81 459.061 309.087 460.313 309.33 461.252C309.572 462.192 309.871 463.154 310.225 464.138C310.58 465.122 310.901 466.081 311.189 467.015C311.477 467.949 311.691 468.66 311.832 469.147C311.973 469.635 312.302 470.396 312.819 471.43C313.336 472.464 313.772 473.397 314.127 474.228C314.482 475.059 314.935 475.871 315.486 476.664C316.037 477.457 316.529 478.188 316.961 478.856C317.393 479.525 317.796 480.046 318.172 480.419C318.547 480.792 318.931 481.06 319.324 481.222C319.717 481.385 320.122 481.661 320.538 482.051C320.955 482.442 321.351 482.892 321.726 483.403C322.101 483.913 322.696 484.527 323.512 485.244C324.327 485.961 324.98 486.612 325.469 487.197C325.958 487.781 326.408 488.305 326.819 488.77C327.23 489.234 327.623 489.781 327.997 490.41C328.371 491.04 328.735 492.063 329.087 493.479C329.441 494.895 329.743 496.342 329.995 497.819C330.247 499.297 330.516 500.67 330.8 501.937C331.085 503.205 331.371 504.43 331.659 505.611C331.947 506.792 332.205 507.952 332.433 509.091C332.66 510.23 332.918 511.23 333.206 512.09C333.494 512.949 333.816 513.91 334.17 514.971C334.525 516.033 334.848 516.953 335.138 517.732C335.428 518.511 335.637 519.192 335.767 519.776C335.897 520.36 336.203 521.116 336.688 522.043C337.172 522.971 337.593 523.808 337.952 524.556" stroke="black" stroke-width="2" stroke-linecap="round" stroke-linejoin="round"/>
<path d="M446.076 232.287C449.528 238.044 480.074 256.583 488.748 262.315C497.422 268.048 518.58 282.076 520.007 283.009C521.434 283.943 523.027 284.994 524.786 286.163C526.545 287.332 527.909 288.229 528.878 288.852C529.847 289.476 530.984 290.252 532.288 291.182C533.593 292.112 534.833 293.016 536.01 293.895C537.187 294.773 538.179 295.527 538.986 296.158C539.793 296.788 540.833 297.622 542.107 298.661C543.381 299.699 544.58 300.687 545.703 301.623C546.827 302.56 547.905 303.392 548.937 304.121C549.97 304.849 551.176 305.656 552.556 306.541C553.935 307.426 555.12 308.211 556.11 308.895C557.099 309.58 558.289 310.483 559.679 311.604C561.07 312.726 562.131 313.607 562.862 314.25C563.593 314.892 564.478 315.639 565.517 316.491C566.555 317.342 567.47 318.088 568.259 318.729C569.049 319.37 570.076 320.147 571.341 321.059C572.605 321.971 574.023 323.054 575.591 324.307C577.16 325.559 578.759 326.912 580.387 328.364C582.015 329.817 583.456 331.135 584.709 332.318C585.962 333.501 587.263 334.64 588.613 335.736C589.963 336.833 591.075 337.726 591.949 338.415C592.823 339.104 593.81 339.97 594.909 341.013C596.008 342.056 597.023 343.062 597.954 344.033C598.884 345.004 599.815 345.955 600.745 346.885C601.676 347.815 602.515 348.622 603.262 349.307C604.01 349.991 605.273 351.046 607.051 352.471C608.828 353.897 610.085 354.889 610.82 355.448C611.556 356.007 612.5 356.758 613.653 357.699C614.805 358.641 616.035 359.613 617.34 360.615C618.646 361.617 619.648 362.39 620.345 362.933C621.043 363.477 622.206 364.338 623.836 365.517C625.466 366.695 626.98 367.743 628.38 368.66C629.779 369.577 631.111 370.404 632.375 371.142C633.639 371.88 634.745 372.513 635.691 373.041C636.637 373.569 637.598 374.106 638.574 374.651C639.549 375.196 640.42 375.629 641.186 375.949C641.952 376.27 643.057 376.678 644.502 377.172C645.946 377.666 647.015 378.073 647.706 378.392C648.398 378.711 649.086 379.034 649.772 379.362C650.822 379.864 651.732 380.29 652.501 380.64" stroke="black" stroke-width="2" stroke-linecap="round" stroke-linejoin="round"/>
<path d="M657.309 386.121C657.309 385.772 653.916 380.413 653.916 381.011C653.916 381.608 657.345 388.1 657.418 389.139C657.49 390.178 657.528 391.752 657.53 393.86C657.532 395.969 657.452 397.523 657.29 398.522C657.128 399.522 657.029 400.561 656.992 401.64C656.954 402.719 656.909 403.565 656.856 404.178C656.803 404.791 656.633 405.844 656.344 407.339C656.056 408.833 655.706 410.079 655.294 411.078C654.883 412.077 654.423 413.052 653.916 414.001C653.409 414.951 652.849 415.833 652.235 416.647C651.622 417.461 651.017 418.207 650.423 418.885C649.828 419.563 649.206 420.211 648.555 420.83C647.904 421.45 647.177 422.075 646.375 422.706C645.572 423.337 644.474 424.166 643.081 425.195C641.687 426.224 640.706 426.943 640.136 427.354C639.567 427.764 638.751 428.263 637.688 428.849C636.625 429.436 635.786 429.893 635.171 430.221C634.557 430.549 633.772 430.887 632.817 431.235C631.863 431.582 630.672 432.054 629.244 432.649C627.815 433.245 626.553 433.774 625.458 434.237C624.363 434.7 623.368 435.153 622.473 435.595C621.578 436.037 620.291 436.785 618.613 437.84C616.934 438.894 615.641 439.661 614.732 440.143C613.824 440.624 612.921 441.083 612.024 441.518C611.127 441.954 610.134 442.469 609.045 443.065C607.956 443.661 606.904 444.27 605.887 444.894C604.871 445.518 603.76 446.236 602.556 447.048C601.351 447.861 600.405 448.531 599.719 449.06C599.033 449.589 598.252 450.248 597.376 451.038C596.499 451.827 595.568 452.722 594.58 453.722C593.592 454.723 592.564 455.844 591.497 457.085C590.429 458.327 589.574 459.37 588.933 460.215C588.292 461.06 587.455 462.313 586.423 463.975C585.391 465.637 584.578 466.906 583.983 467.783C583.388 468.66 582.792 469.584 582.194 470.556C581.596 471.527 581.004 472.451 580.418 473.325C579.832 474.2 579.024 475.295 577.993 476.61C576.963 477.926 576.063 479.125 575.295 480.209C574.527 481.293 573.777 482.325 573.045 483.307C572.313 484.289 571.565 485.273 570.801 486.258C570.036 487.244 569.342 488.18 568.717 489.067C568.093 489.953 567.419 490.876 566.696 491.834C565.972 492.792 565.039 493.952 563.895 495.314C562.751 496.676 561.794 497.767 561.024 498.587C560.255 499.406 559.255 500.411 558.025 501.6C556.796 502.79 555.864 503.689 555.23 504.297C554.596 504.906 553.603 505.776 552.248 506.908C550.894 508.041 549.425 509.291 547.84 510.659C546.256 512.028 544.921 513.101 543.835 513.879C542.749 514.657 541.655 515.391 540.553 516.082C539.451 516.773 538.332 517.494 537.198 518.247C536.063 518.999 535.222 519.574 534.676 519.972C534.13 520.37 533.241 520.94 532.009 521.682C530.777 522.424 529.595 523.106 528.463 523.726C527.331 524.346 526.116 524.985 524.818 525.643C523.52 526.3 522.443 526.814 521.587 527.186C520.732 527.558 519.889 527.884 519.058 528.166C518.227 528.447 517.512 528.665 516.913 528.817C516.314 528.97 515.261 529.172 513.753 529.425C512.246 529.678 510.624 530.029 508.887 530.478C507.15 530.927 505.339 531.373 503.454 531.816C501.569 532.259 500.108 532.582 499.07 532.785C498.032 532.989 497.024 533.225 496.047 533.495C495.07 533.765 493.899 534.156 492.534 534.667C491.169 535.178 489.781 535.659 488.37 536.11C486.96 536.561 485.645 537.028 484.426 537.511C483.207 537.994 481.947 538.651 480.647 539.484C479.347 540.317 478.268 540.998 477.412 541.527C476.555 542.056 475.924 542.497 475.519 542.849C475.113 543.201 474.3 544.041 473.077 545.368C471.855 546.695 470.891 547.716 470.186 548.43C469.48 549.145 468.785 549.823 468.101 550.464C467.416 551.106 466.779 551.732 466.191 552.343C465.602 552.953 464.776 553.741 463.714 554.707C462.653 555.672 461.608 556.631 460.581 557.583C459.553 558.536 458.088 559.749 456.185 561.224C454.282 562.699 452.843 563.807 451.869 564.549C450.896 565.292 449.937 565.978 448.994 566.609C448.051 567.24 447.176 567.77 446.369 568.198C445.561 568.625 444.532 569.107 443.28 569.643C442.028 570.179 440.979 570.602 440.133 570.913C439.287 571.223 438.555 571.475 437.936 571.667C437.317 571.859 436.619 572.039 435.843 572.207C435.067 572.374 434.08 572.541 432.885 572.707C431.688 572.873 430.248 572.966 428.563 572.988C426.878 573.01 425.609 572.923 424.755 572.726C423.902 572.529 423.187 572.304 422.609 572.05C422.031 571.796 421.228 571.277 420.198 570.493C419.17 569.71 418.195 568.936 417.275 568.171C416.355 567.406 415.576 566.676 414.939 565.981C414.301 565.286 413.661 564.533 413.017 563.722C412.374 562.911 411.813 562.173 411.336 561.507C410.858 560.842 410.138 559.909 409.175 558.709C408.212 557.51 407.308 556.454 406.464 555.541C405.619 554.628 404.917 553.934 404.358 553.457C403.798 552.981 403.275 552.568 402.788 552.219C402.302 551.869 401.646 551.467 400.82 551.011C399.995 550.556 399.279 550.179 398.673 549.882C398.067 549.584 398.939 550.107 397.062 549.269C395.811 548.71 390.885 548.25 382.283 547.89C381.439 547.886 370.122 549.269 361.781 547.699C353.44 546.129 343.214 531.816 339.106 525.643" stroke="black" stroke-width="2" stroke-linecap="round" stroke-linejoin="round"/>
<path d="M456.222 92.1138C456.515 92.671 456.294 93.3924 455.559 94.2775C455.052 94.8885 454.463 95.6747 453.792 96.6354C453.121 97.5961 452.595 98.2791 452.214 98.6845C451.833 99.0895 451.319 99.5278 450.672 99.9992C450.025 100.47 449.041 101.1 447.719 101.888C446.397 102.676 445.074 103.442 443.751 104.184C442.428 104.927 441.249 105.545 440.215 106.036C439.181 106.528 437.969 107.082 436.578 107.699C435.187 108.315 434.079 108.835 433.255 109.259C432.43 109.682 431.552 110.142 430.619 110.638C429.687 111.133 428.346 111.637 426.594 112.149C424.843 112.661 423.17 113.131 421.576 113.559C419.981 113.987 418.644 114.35 417.564 114.647C416.484 114.944 415.164 115.275 413.603 115.639C412.042 116.004 410.809 116.25 409.903 116.38C408.998 116.51 407.359 116.691 404.986 116.925C402.614 117.158 400.972 117.299 400.061 117.349C399.149 117.398 397.484 117.423 395.065 117.423C392.645 117.423 390.873 117.371 389.748 117.268C388.623 117.164 387.377 116.997 386.01 116.768C384.642 116.54 383.275 116.254 381.907 115.913C380.539 115.572 379.158 115.21 377.764 114.83C376.371 114.449 375.089 114.13 373.92 113.872C372.751 113.613 371.587 113.326 370.43 113.009C369.272 112.692 367.925 112.249 366.39 111.679C364.854 111.11 363.461 110.561 362.209 110.035C360.957 109.508 359.818 108.935 358.79 108.318C357.762 107.7 356.903 107.113 356.211 106.558C355.52 106.002 354.693 105.382 353.73 104.696C352.767 104.01 352.061 103.434 351.614 102.967C351.166 102.5 350.802 102.043 350.52 101.596C350.239 101.149 349.703 100.638 348.914 100.061C348.124 99.4841 347.665 98.7392 346.747 98.0285C345.829 97.3179 346.14 94.4946 345.697 93.0895" stroke="black" stroke-width="2" stroke-linecap="round" stroke-linejoin="round"/>
<path d="M531.79 188.356C530.95 188.198 530.164 188.32 529.431 188.722C528.937 188.994 528.47 189.349 528.032 189.786C527.594 190.223 526.906 190.773 525.968 191.435C525.03 192.097 523.987 192.886 522.84 193.802C521.693 194.718 520.37 195.594 518.872 196.429C517.374 197.264 516.048 197.923 514.894 198.406C513.741 198.889 512.647 199.343 511.613 199.77C510.578 200.196 509.228 200.649 507.562 201.129C505.895 201.609 504.345 201.979 502.912 202.24C501.478 202.5 500.398 202.686 499.672 202.798C498.945 202.91 498.264 203.049 497.627 203.215C496.99 203.381 496.331 203.467 495.65 203.474C494.968 203.481 494.201 203.361 493.348 203.115C492.495 202.868 491.33 202.561 489.853 202.195C488.376 201.828 487.061 201.48 485.909 201.152C484.757 200.823 483.457 200.374 482.007 199.805C480.558 199.237 479.369 198.794 478.441 198.478C477.514 198.162 476.784 197.946 476.251 197.829C475.482 197.66 473.877 197.44 471.436 197.168" stroke="black" stroke-width="2" stroke-linecap="round" stroke-linejoin="round"/>
<path d="M315.521 193.351C314.763 193.039 313.968 192.786 313.137 192.593C312.306 192.399 311.589 192.165 310.986 191.89C310.384 191.616 309.488 191.136 308.3 190.452C307.112 189.767 306.141 189.161 305.387 188.633C304.632 188.105 303.949 187.6 303.336 187.118C302.722 186.637 301.919 186.008 300.926 185.231C299.932 184.454 298.93 183.611 297.917 182.7C296.905 181.79 296.122 181.112 295.569 180.668C295.017 180.224 294.337 179.649 293.53 178.941C292.723 178.234 291.82 177.378 290.821 176.372C289.822 175.366 288.981 174.457 288.298 173.644C287.614 172.831 286.853 171.755 286.012 170.416C285.171 169.076 284.497 168.088 283.989 167.451C283.482 166.814 282.733 165.943 281.744 164.838C280.755 163.734 280.12 162.975 279.84 162.562C279.559 162.148 279.197 161.428 278.754 160.4C278.111 158.909 276.955 156.395 275.284 152.857" stroke="black" stroke-width="2" stroke-linecap="round" stroke-linejoin="round"/>
<path d="M604.72 551.33C604.125 546.058 603.647 526.541 603.647 510.199C603.647 493.857 603.792 483.28 604.081 478.467C604.37 473.655 604.519 468.827 604.527 463.984C604.535 459.141 604.683 454.328 604.971 449.543C605.259 444.759 605.408 431.609 605.417 410.094C605.427 388.578 605.337 374.347 605.149 367.399C604.961 360.452 604.812 353.8 604.703 347.443C604.594 341.086 604.539 333.269 604.539 323.994C604.539 314.718 604.354 306.202 603.984 298.445C603.614 290.689 603.424 283.998 603.416 278.373C603.408 272.747 603.35 264.358 603.242 253.206C603.134 242.053 602.937 234.32 602.652 230.005C602.366 225.69 602.217 208.496 602.206 178.423C602.194 148.349 602.385 130.086 602.78 123.633C603.174 117.18 603.466 112.227 603.654 108.774C603.922 103.858 604.011 79.7442 603.921 36.4336" stroke="black" stroke-width="2" stroke-linecap="round" stroke-linejoin="round"/>
<path d="M300.729 497.447C300.928 487.246 300.729 462.632 300.729 444.62C300.729 433.076 300.927 424.166 301.323 417.887C301.719 411.609 302.066 407.094 302.363 404.342C302.66 401.591 302.856 395.976 302.949 387.495C303.042 379.015 303.234 372.127 303.524 366.83C303.814 361.533 304.161 356.309 304.565 351.158C304.97 346.007 305.218 340.73 305.31 335.325C305.402 329.921 305.502 323.919 305.611 317.321C305.72 310.722 305.774 300.156 305.774 285.622C305.774 271.087 305.683 261.925 305.501 258.135C305.32 254.345 305.225 238.286 305.217 209.96C305.208 181.634 305.443 195.146 305.919 189.752" stroke="black" stroke-width="2" stroke-linecap="round" stroke-linejoin="round"/>
<path d="M312.223 98.9521C312.728 97.7281 313.22 96.4726 313.698 95.1852C314.175 93.8979 314.667 92.7772 315.172 91.823C315.678 90.8688 316.073 90.0997 316.359 89.5152C316.645 88.9309 317.198 88.0516 318.018 86.877C318.838 85.7026 319.533 84.7643 320.102 84.0623C320.672 83.3604 321.629 82.0516 322.975 80.1364C324.32 78.221 325.543 76.6046 326.642 75.287C327.741 73.9696 328.842 72.7037 329.945 71.4896C331.048 70.2755 332.26 69.0427 333.581 67.7914C334.902 66.5401 335.943 65.5531 336.704 64.8304C337.464 64.1078 338.12 63.5046 338.671 63.0208C339.223 62.5371 340.481 61.6471 342.447 60.3508C344.412 59.0547 345.863 58.2214 346.797 57.8513C347.732 57.481 348.533 57.1042 349.2 56.7211C349.866 56.3377 350.645 55.9386 351.535 55.5239C352.426 55.1092 353.199 54.7041 353.856 54.3091C354.513 53.9139 355.592 53.3425 357.093 52.5944C358.593 51.8463 360.063 51.2146 361.501 50.6992C362.94 50.1838 364.066 49.7579 364.879 49.4211C365.693 49.0845 366.497 48.7337 367.292 48.3688C368.088 48.0039 368.849 47.7079 369.577 47.4807C370.304 47.2536 371.436 46.8179 372.972 46.1735C374.507 45.529 375.74 45.0437 376.669 44.7176C377.598 44.3916 378.561 44.0846 379.557 43.7967C380.554 43.5091 381.609 43.1444 382.723 42.7028C383.837 42.261 385.175 41.7759 386.738 41.2474C388.302 40.7187 389.934 40.185 391.635 39.6467C393.337 39.1081 394.722 38.659 395.791 38.2992C396.861 37.9395 398.276 37.4827 400.038 36.9286C401.8 36.3748 403.356 35.8293 404.707 35.2923C406.058 34.7552 408.197 33.9948 411.123 33.0117C414.049 32.0285 416.29 31.2854 417.846 30.7822C419.402 30.2793 420.987 29.8167 422.603 29.3949C424.218 28.9733 426.192 28.352 428.526 27.5314C430.86 26.7107 432.552 26.1633 433.601 25.8888C434.65 25.6142 435.617 25.4009 436.5 25.2484C437.384 25.0963 438.438 24.8786 439.664 24.5959C440.89 24.3132 442.078 24.0244 443.23 23.7301C444.381 23.4356 445.79 23.1407 447.456 22.8451C449.122 22.5495 450.689 22.1953 452.157 21.7823C453.624 21.3691 455.305 20.9436 457.198 20.5057C459.091 20.0678 460.615 19.7518 461.771 19.5578C462.926 19.3639 464.642 18.9651 466.92 18.3617C469.197 17.7583 471.219 17.2703 472.986 16.8981C474.753 16.5259 476.222 16.1713 477.393 15.8342C478.565 15.497 479.821 15.1707 481.162 14.8552C482.503 14.5396 483.75 14.281 484.901 14.0792C486.053 13.8772 487.249 13.6095 488.491 13.2759C489.733 12.9425 491.168 12.6268 492.796 12.3286C494.424 12.0304 496.209 11.6513 498.149 11.1909C500.09 10.7307 502.355 10.2586 504.945 9.77477C507.536 9.29092 509.769 8.83047 511.645 8.39299C513.52 7.95573 515.409 7.57749 517.31 7.25829C519.212 6.93909 520.671 6.66948 521.688 6.44966C522.705 6.22985 524.419 5.94907 526.83 5.60754C529.241 5.26602 531.247 4.97386 532.849 4.73086C534.45 4.48787 535.811 4.26698 536.931 4.0682C538.052 3.86964 539.152 3.6992 540.233 3.55667C541.314 3.41413 542.523 3.22115 543.859 2.97772C545.195 2.73408 546.904 2.51513 548.986 2.32043C551.068 2.12573 552.515 1.97933 553.324 1.88102C554.134 1.78292 554.963 1.72088 555.808 1.69512C556.654 1.66936 557.693 1.58307 558.926 1.43645C560.16 1.28984 561.25 1.181 562.197 1.11017C563.145 1.03933 564.868 1.00262 567.367 1.00004C569.867 0.997253 571.644 1.12691 572.698 1.38858C573.753 1.65025 574.974 1.86642 576.362 2.03729C577.75 2.20816 579.01 2.43914 580.144 2.73065C581.277 3.02216 582.3 3.26408 583.21 3.45663C584.12 3.64918 585.06 3.98835 586.03 4.47434C587 4.96034 587.829 5.34952 588.518 5.64146C589.207 5.9334 589.842 6.27235 590.425 6.65831C591.007 7.04427 591.861 7.72261 592.987 8.69331C594.113 9.66401 594.949 10.3576 595.496 10.774C596.044 11.1905 596.678 11.8583 597.401 12.7772C598.123 13.6962 598.998 14.5828 600.025 15.4365C601.051 16.2904 602.908 22.3024 603.239 22.8451C603.571 23.388 603.909 26.4217 603.909 28.2752C603.909 29.5109 603.909 31.2501 603.909 33.493" stroke="black" stroke-width="2" stroke-linecap="round" stroke-linejoin="round"/>
<path d="M641.987 559.287C641.95 558.416 642.03 557.48 642.225 556.479C642.354 555.817 642.426 554.613 642.439 552.869C642.453 551.125 642.424 549.829 642.353 548.98C642.282 548.131 642.19 547.489 642.076 547.053C641.963 546.618 641.783 546.141 641.538 545.623C641.292 545.104 641.05 544.706 640.81 544.428C640.571 544.149 640.293 543.898 639.977 543.675C639.659 543.451 639.249 543.228 638.745 543.005C638.242 542.783 637.508 542.657 636.544 542.627C635.58 542.597 634.733 542.657 634.002 542.806C633.271 542.956 632.681 543.066 632.232 543.138C631.783 543.209 631.177 543.361 630.413 543.595C629.65 543.829 628.634 544.231 627.365 544.8C626.097 545.368 624.989 545.897 624.043 546.385C623.096 546.873 621.953 547.444 620.613 548.097C619.274 548.751 618.206 549.301 617.412 549.748C616.617 550.195 615.939 550.564 615.378 550.856C614.817 551.148 614.364 551.397 614.019 551.605C613.674 551.812 613.256 552.028 612.766 552.252C612.276 552.475 611.498 552.871 610.432 553.44C609.365 554.009 608.385 554.558 607.492 555.089C606.598 555.619 605.723 556.142 604.868 556.657C604.013 557.173 603.298 557.591 602.724 557.912C602.151 558.233 601.462 558.692 600.657 559.289C599.852 559.886 599.082 560.407 598.346 560.853C597.61 561.299 596.891 561.764 596.187 562.249C595.483 562.733 594.776 563.235 594.067 563.755C593.358 564.274 592.643 564.783 591.922 565.283C591.2 565.782 590.509 566.248 589.848 566.681C589.188 567.113 588.473 567.629 587.705 568.228C586.937 568.828 586.352 569.295 585.95 569.63C585.548 569.965 585.139 570.278 584.723 570.568C584.307 570.858 583.925 571.144 583.576 571.425C583.226 571.706 582.805 572.125 582.312 572.682C581.819 573.239 581.321 573.897 580.819 574.657C580.317 575.417 579.905 576.168 579.585 576.91C579.264 577.652 578.954 578.419 578.652 579.212C578.351 580.005 578.112 580.847 577.934 581.74C577.757 582.633 577.619 583.452 577.519 584.199C577.42 584.946 577.319 585.816 577.216 586.811C577.113 587.805 577.06 588.804 577.059 589.807C577.057 590.811 577.072 591.58 577.104 592.114C577.136 592.648 577.235 593.023 577.403 593.238" stroke="black" stroke-width="2" stroke-linecap="round" stroke-linejoin="round"/>
<path d="M320.538 488.922C319.342 489.472 317.956 490.021 316.38 490.571C314.805 491.12 313.562 491.589 312.654 491.976C311.745 492.364 310.49 493.016 308.887 493.933C307.285 494.85 305.861 495.594 304.615 496.164C303.368 496.735 302.451 497.175 301.862 497.485C301.272 497.796 300.256 498.267 298.813 498.897C297.369 499.528 296.209 500.048 295.333 500.456C294.457 500.864 293.541 501.314 292.586 501.806C291.63 502.297 290.838 502.729 290.21 503.1C289.582 503.471 288.582 504.136 287.21 505.096C285.837 506.056 284.727 506.829 283.877 507.415C283.028 508 282.296 508.528 281.683 508.998C281.069 509.468 280.598 509.878 280.27 510.229C279.941 510.58 279.382 511.087 278.593 511.751C277.804 512.415 277.005 513.23 276.196 514.194C275.387 515.159 274.848 515.819 274.577 516.175C274.307 516.531 273.954 517.149 273.519 518.028C273.085 518.907 272.741 519.747 272.489 520.549C272.236 521.351 272.005 522.23 271.796 523.186C271.587 524.142 271.434 524.954 271.337 525.623C271.241 526.291 271.164 526.996 271.106 527.736C271.049 528.476 271.011 529.532 270.993 530.904C270.975 532.276 270.928 533.344 270.852 534.109C270.775 534.874 270.736 535.566 270.734 536.184C270.732 536.803 270.572 537.26 270.255 537.558" stroke="black" stroke-width="2" stroke-linecap="round" stroke-linejoin="round"/>
<path d="M484.348 539.161C487.526 539.918 489.929 540.491 491.558 540.879C493.186 541.267 494.865 541.655 496.593 542.043C498.322 542.431 500.153 542.857 502.086 543.321C504.019 543.785 506.676 544.398 510.056 545.16C513.437 545.922 516.006 546.543 517.765 547.021C519.523 547.5 520.844 547.83 521.728 548.011C522.611 548.192 524.52 548.638 527.455 549.349C530.39 550.06 532.344 550.541 533.317 550.793C534.291 551.044 535.233 551.27 536.144 551.47C537.055 551.67 538.332 551.981 539.973 552.406C541.615 552.83 543.237 553.265 544.84 553.713C546.442 554.16 548.305 554.732 550.427 555.428C552.549 556.124 554.522 556.739 556.345 557.273C558.168 557.808 560.168 558.35 562.347 558.9C564.526 559.451 566.351 559.919 567.823 560.305C569.295 560.69 570.646 561.051 571.875 561.387C573.104 561.723 574.072 561.97 574.778 562.128C575.911 562.381 584.639 564.862 585.027 565.102" stroke="black" stroke-width="2" stroke-linecap="round" stroke-linejoin="round"/>
<path d="M290.374 502.125C291.166 502.301 293.209 502.569 296.501 502.931C298.446 503.146 300.788 503.52 303.528 504.055C306.268 504.59 309.19 505.109 312.292 505.613C315.393 506.117 318.128 506.553 320.495 506.92C322.862 507.287 325.577 507.743 328.641 508.288" stroke="black" stroke-width="2" stroke-linecap="round" stroke-linejoin="round"/>
<path d="M501.649 531.759C503.266 532.167 505.503 532.691 508.36 533.331C511.217 533.97 513.601 534.465 515.513 534.815C517.424 535.165 519.032 535.474 520.337 535.742C521.642 536.01 523.61 536.459 526.24 537.09C528.871 537.721 531.051 538.249 532.78 538.675C534.51 539.101 536.373 539.526 538.37 539.95C540.366 540.373 542.504 540.835 544.784 541.334C547.064 541.833 548.881 542.246 550.236 542.574C551.59 542.901 553.742 543.372 556.691 543.987C559.64 544.602 562.537 545.181 565.382 545.723C568.227 546.265 570.35 546.699 571.752 547.024C573.153 547.349 574.211 547.581 574.927 547.718C575.643 547.855 576.343 548.008 577.029 548.179C577.715 548.349 578.962 548.574 580.77 548.854C582.578 549.135 584.253 549.408 585.795 549.675C587.337 549.942 589.013 550.24 590.821 550.569C592.63 550.898 593.967 551.132 594.835 551.269C595.703 551.407 596.653 551.516 597.687 551.595C598.72 551.675 599.551 551.773 600.179 551.887C601.145 552.064 601.821 552.349 602.207 552.743" stroke="black" stroke-width="2" stroke-linecap="round" stroke-linejoin="round"/>
<path d="M315.521 492.047C316.639 491.956 317.928 491.998 319.388 492.171C320.347 492.286 321.683 492.52 323.396 492.874C325.108 493.229 326.895 493.597 328.755 493.98" stroke="black" stroke-width="2" stroke-linecap="round" stroke-linejoin="round"/>
<path d="M743.032 193.351C741.716 195.259 740.299 197.43 738.783 199.863C737.785 201.465 736.117 203.71 733.78 206.599C731.443 209.488 729.497 211.821 727.943 213.599" stroke="black" stroke-width="2" stroke-linecap="round" stroke-linejoin="round"/>
<path d="M707.825 233.846C706.625 234.376 705.313 235.293 703.889 236.595C702.957 237.447 701.732 238.734 700.214 240.456C698.695 242.179 697.295 243.862 696.015 245.506C694.735 247.15 693.485 248.605 692.266 249.87C690.351 251.857 688.832 253.265 687.707 254.093" stroke="black" stroke-width="2" stroke-linecap="round" stroke-linejoin="round"/>
<path d="M647.471 274.34C644.636 276.805 641.442 279.577 637.888 282.658C635.552 284.684 633.912 286.034 632.969 286.708C631.585 287.698 629.713 288.638 627.353 289.526" stroke="black" stroke-width="2" stroke-linecap="round" stroke-linejoin="round"/>
<path d="M597.175 299.651C595.289 299.842 593.426 300.264 591.585 300.916C589.744 301.569 587.882 302.337 585.999 303.221C584.117 304.104 582.077 305 579.881 305.907C577.685 306.815 575.906 307.489 574.544 307.93C572.537 308.58 570.022 309.194 566.998 309.774" stroke="black" stroke-width="2" stroke-linecap="round" stroke-linejoin="round"/>
<path d="M531.79 314.836C530.603 315.232 528.678 316.215 526.018 317.783C523.357 319.351 520.898 320.737 518.639 321.941C516.381 323.144 514.149 324.286 511.946 325.366C509.742 326.446 507.903 327.308 506.431 327.953C504.006 329.016 502.4 329.705 501.613 330.021" stroke="black" stroke-width="2" stroke-linecap="round" stroke-linejoin="round"/>
<path d="M476.467 350.268C474.207 351.699 472.02 353.222 469.906 354.84C468.498 355.917 466.717 357.377 464.565 359.219C461.195 362.104 458.456 364.183 456.349 365.454" stroke="black" stroke-width="2" stroke-linecap="round" stroke-linejoin="round"/>
<path d="M426.172 390.763C424.791 392.408 422.776 395.218 420.127 399.191C417.477 403.164 415.661 405.886 414.677 407.358C413.693 408.83 412.495 410.048 411.083 411.011" stroke="black" stroke-width="2" stroke-linecap="round" stroke-linejoin="round"/>
<path d="M404.477 44.5143C403.566 45.4189 402.523 46.1296 401.349 46.6464C400.565 46.9915 399.694 47.2464 398.735 47.4111C397.777 47.5759 396.77 47.7026 395.716 47.7912C394.662 47.8801 393.887 47.849 393.39 47.6984C392.893 47.5478 392.33 47.1826 391.7 46.6026C391.07 46.0226 390.533 45.4336 390.088 44.8353C389.643 44.2372 389.336 43.7626 389.166 43.4119C388.997 43.0612 388.859 42.4575 388.754 41.6008C388.648 40.7442 388.601 40.1263 388.613 39.7475C388.625 39.3686 388.747 38.7883 388.979 38.0069C389.212 37.2255 389.427 36.6494 389.624 36.2792C389.821 35.9086 390.157 35.4478 390.632 34.8964C391.107 34.3452 391.524 33.928 391.881 33.645C392.239 33.362 392.741 33.0372 393.388 32.6708C394.035 32.3044 394.724 31.9794 395.455 31.696C396.186 31.4125 397.119 31.1411 398.255 30.8817C399.39 30.6223 400.875 30.4168 402.707 30.265C404.54 30.1132 405.765 30.1431 406.382 30.355C407 30.5669 407.487 30.7908 407.843 31.0272C408.2 31.2635 408.467 31.5238 408.644 31.8082C408.822 32.0926 408.979 32.4161 409.115 32.7787C409.251 33.1411 409.488 33.5569 409.825 34.026C410.162 34.495 410.429 34.9334 410.625 35.3417C410.821 35.75 411.043 36.3821 411.291 37.2382C411.54 38.0944 411.716 38.8657 411.821 39.5521C411.926 40.2388 412.042 40.9173 412.171 41.5877C412.3 42.2582 412.392 42.9362 412.449 43.6214C412.506 44.3068 412.529 45.0389 412.518 45.8174C412.507 46.5962 412.456 47.633 412.365 48.9279C412.274 50.2228 412.162 51.3615 412.03 52.3436C411.897 53.3257 411.716 54.2811 411.485 55.2096C411.254 56.1381 411.056 56.9207 410.893 57.5574C410.729 58.1941 410.506 58.7876 410.224 59.3378C409.943 59.8879 409.659 60.386 409.374 60.8318C409.089 61.2774 408.821 61.7733 408.57 62.3192C408.319 62.865 407.905 63.559 407.328 64.4012C406.75 65.2432 406.152 66.0287 405.533 66.7572C404.914 67.4857 404.197 68.2238 403.381 68.9716C402.565 69.7194 401.914 70.3229 401.429 70.7818C400.943 71.2412 400.498 71.6063 400.094 71.8778C399.69 72.149 399.212 72.3927 398.661 72.6086C398.109 72.8244 397.523 73.081 396.903 73.3783C396.282 73.6756 395.514 73.9795 394.597 74.2904C393.68 74.601 392.921 74.8714 392.32 75.102C391.719 75.3326 391.006 75.6307 390.181 75.9963C389.357 76.3617 388.432 76.7472 387.407 77.1523C386.382 77.5575 385.517 77.921 384.813 78.2431C384.109 78.5652 383.389 78.8424 382.654 79.0745C381.919 79.3069 381.184 79.5508 380.45 79.8066C379.715 80.0626 378.812 80.4001 377.74 80.8191C376.669 81.2379 375.686 81.5785 374.791 81.841C373.896 82.1032 373.025 82.3831 372.179 82.68C371.332 82.977 370.607 83.2666 370.003 83.5483C369.4 83.8301 368.715 84.1364 367.949 84.4676C367.183 84.7987 366.276 85.174 365.228 85.5931C364.181 86.0125 363.215 86.369 362.332 86.6628C361.448 86.9566 360.754 87.1976 360.247 87.3863C359.74 87.5748 359.067 87.8858 358.226 88.3189C357.385 88.7521 356.608 89.1913 355.893 89.6365C355.178 90.0817 354.188 90.6741 352.924 91.4133C351.659 92.1526 350.783 92.6764 350.296 92.9848" stroke="black" stroke-width="2" stroke-linecap="round" stroke-linejoin="round"/>
<path d="M454.236 93.9982C453.132 93.7623 450.892 93.3638 447.518 92.6546C446.76 92.5255 443.864 91.6342 442.89 91.3992C441.917 91.1642 441.103 90.9457 440.448 90.7435C439.793 90.5416 439.002 90.3272 438.075 90.1001C437.149 89.8732 436.3 89.6584 435.529 89.4548C434.758 89.2515 433.894 88.9736 432.938 88.6213C431.981 88.269 431.089 87.9217 430.261 87.5791C429.432 87.237 428.823 86.9646 428.434 86.7624C428.045 86.5605 427.509 86.2645 426.826 85.8743C426.144 85.4846 425.556 85.1369 425.064 84.8317C424.571 84.5265 423.933 84.158 423.149 83.7264C422.364 83.2949 421.671 82.9024 421.07 82.5489C420.468 82.1954 419.903 81.8468 419.374 81.503C418.846 81.1592 418.381 80.8644 417.979 80.6186C417.577 80.373 417.166 80.0979 416.746 79.7934C416.326 79.4889 415.753 79.0148 415.026 78.3716C414.299 77.7284 413.777 77.2442 413.458 76.9184C413.139 76.5929 412.724 76.2177 412.212 75.7933C411.7 75.3689 411.346 75.0196 411.15 74.7453C410.954 74.4711 410.802 74.3034 410.695 74.2417" stroke="black" stroke-width="2" stroke-linecap="round" stroke-linejoin="round"/>
<path d="M451.548 99.3722C431.842 98.0286 384.368 96.685 352.121 102.059" stroke="black" stroke-width="2"/>
<path d="M411.165 74.7123C410.912 74.7118 410.552 74.5933 410.085 74.3569C409.786 74.206 409.516 74.0197 409.274 73.798C409.032 73.5763 408.856 73.3342 408.745 73.0714C408.634 72.8083 408.57 72.4675 408.555 72.0483C408.54 71.6293 408.6 71.2774 408.735 70.9926C408.869 70.7078 409.058 70.4368 409.301 70.1793C409.543 69.922 409.832 69.6803 410.167 69.4542C410.502 69.2279 410.885 69.024 411.316 68.8423C411.747 68.6607 412.209 68.5177 412.704 68.4135C413.199 68.3092 413.721 68.2364 414.27 68.1951C414.82 68.1537 415.596 68.1317 416.601 68.1293C417.605 68.1271 418.901 68.1909 420.49 68.3211C422.078 68.4511 423.518 68.5228 424.809 68.5362C426.101 68.5494 426.908 68.5467 427.23 68.5281C427.553 68.5096 427.974 68.4502 428.492 68.3503C429.011 68.2503 429.469 68.1355 429.867 68.0055C430.265 67.8757 430.571 67.7352 430.785 67.5843C431 67.4332 431.158 67.2159 431.26 66.9322C431.361 66.6487 431.434 66.3919 431.478 66.1618C431.521 65.9315 431.544 65.6846 431.545 65.4204C431.546 65.1565 431.432 64.9003 431.201 64.6515C430.97 64.403 430.66 64.1648 430.272 63.937C429.884 63.7091 429.397 63.4998 428.811 63.3093C428.226 63.1186 427.739 62.993 427.351 62.9328C426.963 62.8725 426.433 62.8162 425.761 62.7641C425.089 62.712 424.531 62.6748 424.087 62.6526C423.455 62.6209 420.456 62.5915 415.091 62.564" stroke="black" stroke-width="2" stroke-linecap="round" stroke-linejoin="round"/>
<path d="M493.597 20.4081C492.615 21.2363 491.518 21.8607 490.307 22.2812C489.498 22.5619 488.608 22.7458 487.64 22.8327C486.671 22.9197 485.658 22.9649 484.6 22.9683C483.542 22.9719 482.772 22.8784 482.289 22.6882C481.806 22.4981 481.273 22.0886 480.692 21.4597C480.111 20.8309 479.623 20.2005 479.228 19.5682C478.833 18.9363 478.565 18.4384 478.424 18.0752C478.284 17.712 478.195 17.0991 478.159 16.2368C478.123 15.3744 478.126 14.7548 478.168 14.3781C478.21 14.0014 478.379 13.4328 478.674 12.6727C478.968 11.9126 479.229 11.3557 479.455 11.0026C479.682 10.649 480.054 10.2169 480.572 9.70555C481.09 9.19446 481.539 8.81216 481.917 8.55887C482.297 8.30558 482.823 8.02239 483.498 7.70932C484.172 7.39624 484.885 7.12789 485.637 6.90426C486.388 6.68064 487.34 6.48533 488.493 6.31834C489.646 6.15135 491.142 6.06617 492.981 6.06257C494.82 6.05898 496.039 6.18753 496.637 6.44847C497.235 6.7094 497.702 6.97191 498.038 7.23622C498.375 7.50052 498.62 7.78146 498.774 8.07925C498.928 8.37705 499.058 8.71215 499.165 9.08456C499.271 9.45675 499.474 9.89029 499.772 10.385C500.07 10.8796 500.301 11.3381 500.463 11.7609C500.626 12.1836 500.796 12.8316 500.975 13.705C501.153 14.5783 501.267 15.3614 501.316 16.0541C501.365 16.747 501.427 17.4327 501.501 18.1112C501.575 18.7899 501.613 19.4732 501.614 20.1607C501.616 20.8484 501.579 21.58 501.506 22.3551C501.433 23.1305 501.298 24.1599 501.103 25.4432C500.908 26.7265 500.705 27.8525 500.494 28.8208C500.282 29.789 500.024 30.7266 499.719 31.6335C499.414 32.5404 499.154 33.3045 498.94 33.9259C498.725 34.5474 498.455 35.1209 498.13 35.6466C497.805 36.1723 497.482 36.6459 497.162 37.0673C496.842 37.4885 496.535 37.9611 496.241 38.485C495.947 39.0089 495.478 39.6672 494.835 40.4601C494.191 41.2528 493.531 41.9875 492.856 42.6638C492.18 43.34 491.406 44.0179 490.532 44.6975C489.659 45.3772 488.962 45.9262 488.441 46.3445C487.92 46.7632 487.447 47.0913 487.022 47.3294C486.598 47.5671 486.101 47.7714 485.534 47.9423C484.967 48.1128 484.362 48.3214 483.72 48.5677C483.078 48.8141 482.287 49.055 481.348 49.291C480.41 49.5267 479.631 49.7351 479.013 49.9165C478.395 50.0978 477.661 50.3374 476.81 50.6354C475.958 50.9332 475.006 51.2429 473.951 51.5641C472.897 51.8853 472.006 52.1779 471.277 52.4422C470.55 52.7065 469.81 52.9247 469.059 53.0969C468.307 53.2693 467.555 53.4531 466.802 53.6489C466.049 53.8449 465.122 54.1085 464.02 54.4398C462.918 54.7708 461.911 55.0311 460.998 55.2206C460.085 55.4098 459.194 55.6186 458.327 55.8463C457.459 56.0742 456.713 56.3043 456.088 56.5365C455.464 56.7686 454.757 57.0188 453.967 57.2871C453.177 57.5555 452.243 57.8564 451.164 58.1897C450.086 58.5233 449.095 58.8008 448.191 59.0224C447.287 59.244 446.575 59.4283 446.054 59.5755C445.534 59.7225 444.838 59.9783 443.965 60.3422C443.092 60.7063 442.281 61.0814 441.533 61.4675C440.785 61.8536 439.75 62.3642 438.43 62.9991C437.11 63.6341 436.195 64.0856 435.685 64.3537C435.175 64.6218 434.6 64.8954 433.96 65.1743C433.321 65.4532 432.559 65.8341 431.675 66.3171C430.79 66.8003 430.054 67.2456 429.466 67.6533C428.879 68.061 428.348 68.4561 427.874 68.8391C427.401 69.222 426.856 69.7088 426.241 70.2997C425.627 70.8903 424.955 71.6017 424.226 72.4339C423.497 73.2662 422.904 74.1623 422.446 75.1217C421.989 76.0814 421.619 76.9008 421.337 77.58C421.055 78.2592 421.078 78.717 421.407 78.9532" stroke="black" stroke-width="2" stroke-linecap="round" stroke-linejoin="round"/>
<path d="M426.517 83.9226C426.953 83.7309 427.631 83.4638 428.55 83.1219C429.469 82.7797 430.276 82.4881 430.971 82.2469C431.666 82.0057 432.583 81.7024 433.721 81.3367C434.859 80.9707 436.058 80.6133 437.318 80.264C438.578 79.9147 439.63 79.6328 440.473 79.4182C441.317 79.2038 442.518 78.8917 444.076 78.4823C445.635 78.0727 446.849 77.7714 447.717 77.5783C448.586 77.3854 449.405 77.2227 450.174 77.0906C450.943 76.9582 451.697 76.8438 452.435 76.7475C453.174 76.6512 453.93 76.5435 454.702 76.425C455.474 76.3065 456.463 76.1819 457.669 76.0519C458.875 75.9218 460.249 75.7709 461.79 75.5995C463.332 75.4281 464.639 75.2929 465.712 75.194C466.784 75.0952 468.034 74.9926 469.459 74.8863C470.884 74.7798 472.213 74.6881 473.448 74.6109C474.682 74.534 476.185 74.4319 477.958 74.305C479.731 74.178 481.431 74.0705 483.059 73.983C484.687 73.8952 485.83 73.8501 486.488 73.8476C487.146 73.8451 488.2 73.8289 489.651 73.7991C491.102 73.7693 492.481 73.749 493.79 73.7376C495.099 73.7261 496.63 73.7205 498.382 73.7203C500.134 73.7203 501.64 73.7402 502.9 73.7801C504.16 73.8201 505.487 73.8725 506.879 73.9375C508.272 74.0022 509.787 74.0978 511.426 74.2246C513.064 74.3515 514.5 74.4527 515.732 74.528C516.964 74.6035 518.312 74.6897 519.774 74.7867C521.236 74.8838 522.363 74.9591 523.155 75.0125C523.946 75.0661 525.024 75.1254 526.387 75.1906C527.75 75.2557 528.726 75.3049 529.316 75.338C529.906 75.371 530.532 75.4184 531.192 75.4801C531.853 75.5417 532.583 75.5993 533.382 75.6531C534.181 75.7067 535.117 75.7873 536.191 75.8945C537.266 76.0017 538.423 76.1353 539.664 76.2951C540.905 76.4552 542.378 76.6486 544.085 76.8753C545.791 77.1019 547.07 77.2962 547.92 77.4579C548.771 77.6199 549.604 77.7693 550.422 77.9063C551.239 78.0431 552.256 78.2034 553.473 78.3871C554.691 78.571 555.563 78.6965 556.089 78.7639C556.616 78.8312 557.414 78.9494 558.483 79.1186C559.553 79.2877 560.455 79.4316 561.191 79.5504C561.927 79.6691 562.667 79.7617 563.411 79.8285C564.155 79.8955 565.092 79.9872 566.22 80.1037C567.348 80.2203 568.132 80.2943 568.571 80.3255C569.011 80.3567 569.499 80.4052 570.037 80.4708C570.574 80.5366 571.494 80.6073 572.797 80.6829C574.1 80.7584 575.125 80.8286 575.873 80.8938C576.622 80.9587 577.128 81.0072 577.392 81.0391C577.656 81.0708 578.117 81.0874 578.776 81.0888C579.435 81.0899 579.94 81.0068 580.289 80.839C580.639 80.6713 580.913 80.5396 581.112 80.4442C581.311 80.3486 581.483 80.2049 581.63 80.0131C581.777 79.8216 581.887 79.5596 581.96 79.2276C582.034 78.8954 582.076 78.58 582.085 78.2811C582.094 77.9824 582.024 77.7317 581.873 77.5288C581.723 77.326 581.583 77.1102 581.454 76.8817C581.325 76.6535 581.24 76.4208 581.198 76.184C581.155 75.9472 580.96 75.5399 580.611 74.9619C580.263 74.3838 580.001 74.0031 579.826 73.8194C579.652 73.6355 579.36 73.4156 578.951 73.1596C578.543 72.9038 578.025 72.6345 577.398 72.3517C576.771 72.0689 576.219 71.8321 575.742 71.6413C575.265 71.4507 574.837 71.2993 574.457 71.1875C574.076 71.0757 573.796 70.9828 573.614 70.9089C573.432 70.8352 573.038 70.7342 572.433 70.606C571.828 70.4778 571.296 70.3477 570.835 70.2158C570.375 70.0837 569.876 69.955 569.337 69.8293C568.799 69.7036 567.93 69.5326 566.731 69.3169C565.531 69.1011 564.508 68.9394 563.662 68.8322C562.815 68.725 562.136 68.6443 561.626 68.5907C561.115 68.5371 560.628 68.4676 560.166 68.3823C559.703 68.2969 559.001 68.1897 558.058 68.0605C557.116 67.9314 556.439 67.8496 556.027 67.8154C555.615 67.7812 555.094 67.7225 554.464 67.6391C553.835 67.5557 553.137 67.4543 552.372 67.3348C551.607 67.2154 551.005 67.1396 550.567 67.1073C550.129 67.0749 549.547 67.0103 548.824 66.9135C548.1 66.8164 547.43 66.7104 546.812 66.5949C546.194 66.4793 545.545 66.3779 544.865 66.2906C544.184 66.203 543.332 66.069 542.309 65.8884C541.285 65.7079 540.274 65.5418 539.276 65.39C538.278 65.2383 537.227 65.0444 536.123 64.8085C535.019 64.5727 534.088 64.3901 533.33 64.2608C532.573 64.1316 531.707 63.9496 530.734 63.7146C529.76 63.4796 528.946 63.2611 528.291 63.0589C527.637 62.857 526.846 62.6426 525.919 62.4155C524.992 62.1886 524.143 61.9738 523.372 61.7703C522.601 61.5669 521.738 61.289 520.781 60.9367C519.825 60.5844 518.932 60.2371 518.104 59.8945C517.275 59.5524 516.667 59.28 516.277 59.0778C515.888 58.8759 515.352 58.58 514.67 58.1897C513.987 57.8 513.4 57.4523 512.907 57.1471C512.415 56.8419 511.777 56.4734 510.992 56.0419C510.208 55.6103 509.515 55.2178 508.913 54.8643C508.311 54.5108 507.746 54.1622 507.218 53.8184C506.69 53.4746 506.225 53.1798 505.823 52.934C505.421 52.6884 505.01 52.4133 504.59 52.1088C504.169 51.8043 503.596 51.3302 502.869 50.687C502.143 50.0438 501.62 49.5596 501.301 49.2338C500.983 48.9083 500.567 48.5331 500.055 48.1087C499.543 47.6843 499.189 47.335 498.993 47.0608C498.797 46.7865 498.646 46.6188 498.539 46.5571" stroke="black" stroke-width="2" stroke-linecap="round" stroke-linejoin="round"/>
<path d="M499.01 47.027C498.757 47.0266 498.397 46.9081 497.929 46.6716C497.631 46.5208 497.361 46.3345 497.119 46.1128C496.877 45.8911 496.7 45.6489 496.589 45.3861C496.478 45.1231 496.415 44.7822 496.4 44.363C496.384 43.944 496.444 43.5921 496.579 43.3073C496.714 43.0224 496.903 42.7515 497.145 42.4939C497.388 42.2366 497.677 41.9949 498.012 41.7688C498.347 41.5425 498.73 41.3386 499.161 41.1569C499.591 40.9753 500.054 40.8323 500.549 40.7281C501.044 40.6238 501.566 40.551 502.115 40.5097C502.664 40.4683 503.441 40.4463 504.445 40.4439C505.449 40.4417 506.746 40.5055 508.334 40.6357C509.923 40.7657 511.363 40.8374 512.654 40.8508C513.945 40.864 514.752 40.8613 515.075 40.8427C515.398 40.8242 515.818 40.7648 516.337 40.6649C516.856 40.5649 517.314 40.4501 517.712 40.3201C518.11 40.1903 518.416 40.0498 518.63 39.8989C518.844 39.7478 519.002 39.5305 519.104 39.2468C519.206 38.9633 519.279 38.7064 519.323 38.4764C519.366 38.2461 519.389 37.9991 519.39 37.735C519.391 37.471 519.276 37.2148 519.045 36.9661C518.815 36.7175 518.505 36.4793 518.117 36.2515C517.728 36.0236 517.241 35.8142 516.656 35.6238C516.07 35.4331 515.584 35.3075 515.196 35.2473C514.808 35.187 514.278 35.1307 513.606 35.0786C512.934 35.0264 512.376 34.9893 511.932 34.9671C511.299 34.9354 508.301 34.9059 502.936 34.8784" stroke="black" stroke-width="2" stroke-linecap="round" stroke-linejoin="round"/>
<path fill-rule="evenodd" clip-rule="evenodd" d="M164.954 176.138C172.219 180.207 177.59 188.614 230.399 166.535C265.605 151.816 288.917 141.088 300.335 134.352C314.485 122.629 322.782 114.389 325.224 109.633C327.667 104.876 337.418 95.357 354.478 81.075C362.245 73.1306 365.508 67.5667 364.269 64.3833C363.029 61.2 357.514 61.0215 347.722 63.8478C340.01 66.3696 335.134 70.1896 333.093 75.308C331.051 80.4264 329.554 83.7839 328.6 85.3804C327.382 87.1178 323.546 90.4104 317.091 95.2582C307.408 102.53 299.995 103.307 280.632 116.281C267.723 124.93 256.529 131.067 247.048 134.692C237.602 137.327 227.353 139.714 216.301 141.853C205.249 143.993 195.454 146.065 186.916 148.068C179.492 150.332 173.807 152.568 169.86 154.776C163.94 158.088 157.688 172.069 164.954 176.138Z" stroke="black" stroke-width="2"/>
</svg>
